<svg width="195" height="42" viewBox="0 0 195 42" fill="none" xmlns="http://www.w3.org/2000/svg">
<g clip-path="url(#clip0_1_6705)">
<path d="M78.1877 22.1973L74.8212 13.3594C74.7902 13.2798 74.7354 13.2114 74.6643 13.1632C74.5932 13.115 74.509 13.0892 74.4228 13.0894C74.3367 13.0895 74.2525 13.1155 74.1816 13.164C74.1106 13.2124 74.0562 13.281 74.0253 13.3607L70.6873 22.2108C70.6642 22.2736 70.6569 22.341 70.666 22.4072C70.6752 22.4735 70.7006 22.5365 70.7399 22.5907C70.7792 22.6451 70.8313 22.689 70.8917 22.7189C70.9521 22.7486 71.0189 22.7632 71.0862 22.7615L77.8191 22.7507C77.9194 22.7516 78.0162 22.7149 78.0903 22.6479C78.1642 22.5809 78.2099 22.4885 78.218 22.3895C78.2241 22.3245 78.2138 22.2589 78.1877 22.1987L78.1877 22.1973ZM79.7577 27.1572L69.1334 27.1743C69.0468 27.175 68.9622 27.2019 68.8913 27.2512C68.8203 27.3005 68.7661 27.3701 68.7358 27.4506L66.6421 32.9706C66.612 33.051 66.558 33.1203 66.4874 33.1697C66.4167 33.2191 66.3326 33.246 66.246 33.247L61.6399 33.2544C61.5696 33.2555 61.5001 33.2392 61.4377 33.2071C61.3753 33.1748 61.322 33.1278 61.2826 33.07C61.2431 33.0123 61.2188 32.9457 61.2118 32.8763C61.2048 32.8069 61.2153 32.7369 61.2424 32.6725L71.7967 6.87783C71.8282 6.79978 71.8837 6.73352 71.9553 6.68849C72.0269 6.64346 72.1111 6.62192 72.1957 6.62694L76.5977 6.61984C76.6813 6.62022 76.7631 6.64381 76.8338 6.68793C76.9045 6.73206 76.9612 6.79493 76.9976 6.86944L87.6335 32.63C87.6609 32.6944 87.6717 32.7647 87.6648 32.8342C87.6579 32.9038 87.6336 32.9706 87.5944 33.0286C87.5549 33.0865 87.5017 33.1339 87.4391 33.1664C87.3767 33.1989 87.3071 33.2154 87.2365 33.2145L82.6375 33.2219C82.5507 33.2214 82.466 33.1946 82.3949 33.1453C82.3238 33.0959 82.2695 33.0263 82.2391 32.9455L80.1276 27.4322C80.1075 27.351 80.0597 27.2791 79.9923 27.2287C79.9249 27.1784 79.8421 27.1526 79.7577 27.1557L79.7577 27.1572ZM89.7957 15.6355L93.7456 15.6291C93.8572 15.6311 93.9637 15.6754 94.0431 15.7529C94.1227 15.8303 94.1691 15.9351 94.1728 16.0455L94.1998 32.789C94.1965 32.8993 94.1503 33.0039 94.0709 33.0812C93.9916 33.1584 93.8853 33.2024 93.774 33.204L89.8255 33.2103C89.7141 33.2095 89.6073 33.166 89.5275 33.0889C89.4476 33.0119 89.4008 32.9072 89.3969 32.7968L89.3699 16.0533C89.3692 15.9977 89.3799 15.9427 89.4012 15.8913C89.4225 15.84 89.4541 15.7934 89.494 15.7543C89.5338 15.7154 89.5813 15.6848 89.6333 15.6643C89.6855 15.6439 89.7413 15.634 89.7972 15.6355L89.7957 15.6355ZM108.555 19.6798C108.552 19.7905 108.506 19.8958 108.426 19.9738C108.347 20.0518 108.241 20.0967 108.129 20.099L108.015 20.0992C106.055 20.1023 104.635 20.5457 103.728 21.4633C102.82 22.3809 102.368 23.8774 102.371 25.9812L102.382 32.7462C102.379 32.8564 102.333 32.9611 102.254 33.0389C102.175 33.1165 102.069 33.1613 101.958 33.1639L98.0633 33.1702C97.9522 33.168 97.846 33.1235 97.7669 33.0461C97.6877 32.9686 97.6415 32.8641 97.6376 32.7538L97.6106 16.04C97.6141 15.9295 97.6602 15.8246 97.7395 15.747C97.8187 15.6692 97.9251 15.6245 98.0365 15.6222L101.899 15.616C102.011 15.6176 102.118 15.6617 102.198 15.7392C102.278 15.8167 102.324 15.9217 102.328 16.0324L102.333 19.3307L102.417 19.3306C102.81 18.0771 103.581 16.9733 104.628 16.1686C105.721 15.4014 107.038 15.0099 108.377 15.0542L108.576 15.0538L108.583 19.6812L108.555 19.6812L108.555 19.6798ZM119.321 19.4984C119.211 19.5005 119.105 19.5443 119.026 19.6213C118.947 19.6982 118.901 19.8022 118.897 19.912L118.908 26.8706C118.856 27.415 119.008 27.9577 119.336 28.3968C119.622 28.6989 120.104 28.8367 120.814 28.8356L121.212 28.8349C121.324 28.8373 121.43 28.8816 121.509 28.9591C121.588 29.0366 121.634 29.1412 121.638 29.2513L121.644 32.7434C121.64 32.8534 121.594 32.9578 121.515 33.035C121.436 33.1123 121.33 33.1564 121.219 33.1583L119.545 33.161C117.81 33.1638 116.476 32.722 115.537 31.8639C114.597 30.9804 114.141 29.7045 114.138 27.9599L114.125 19.9196C114.121 19.8095 114.074 19.7053 113.995 19.6285C113.915 19.5517 113.808 19.5083 113.697 19.5075L111.226 19.5115C111.115 19.5093 111.008 19.4646 110.929 19.3869C110.85 19.3091 110.804 19.2041 110.8 19.0937L110.795 16.0187C110.799 15.9084 110.844 15.8034 110.923 15.7257C111.002 15.648 111.109 15.6032 111.22 15.6009L113.692 15.597C113.803 15.5954 113.91 15.5514 113.989 15.4742C114.068 15.3969 114.114 15.2923 114.118 15.182L114.108 8.97127C114.111 8.86111 114.158 8.7565 114.237 8.67922C114.316 8.60192 114.423 8.55792 114.534 8.55635L118.482 8.54998C118.593 8.5512 118.7 8.59485 118.779 8.67189C118.859 8.74891 118.906 8.85337 118.909 8.96353L118.919 15.1743C118.923 15.2846 118.97 15.389 119.049 15.466C119.129 15.5429 119.235 15.5866 119.346 15.5878L122.187 15.5833C122.298 15.5852 122.405 15.6296 122.484 15.7071C122.564 15.7844 122.61 15.8892 122.614 15.9996L122.619 19.0746C122.616 19.1853 122.57 19.2906 122.49 19.3686C122.411 19.4467 122.305 19.4915 122.193 19.4938L119.321 19.4984ZM137.376 27.8955C137.829 27.4185 138.181 26.8557 138.409 26.2406C138.637 25.6255 138.738 24.971 138.705 24.3165C138.729 23.6626 138.623 23.0103 138.393 22.3969C138.163 21.7836 137.814 21.2212 137.364 20.7418C136.401 19.8706 135.143 19.3885 133.839 19.3906C132.535 19.3927 131.279 19.8788 130.319 20.7531C129.865 21.2302 129.514 21.7931 129.285 22.4081C129.057 23.0232 128.956 23.6776 128.989 24.3322C128.965 24.9861 129.071 25.6384 129.301 26.2517C129.531 26.8651 129.881 27.4275 130.33 27.9069C130.792 28.3611 131.344 28.7156 131.95 28.9482C132.557 29.1808 133.206 29.2865 133.856 29.2585C134.507 29.2933 135.158 29.1898 135.765 28.9548C136.373 28.7197 136.922 28.3586 137.377 27.8955L137.376 27.8955ZM128.291 32.5955C126.956 31.8481 125.868 30.7318 125.162 29.3828C124.411 27.8056 124.02 26.0835 124.017 24.3395C124.014 22.5954 124.4 20.8722 125.145 19.2925C125.856 17.9477 126.938 16.8306 128.264 16.0711C129.597 15.3249 131.105 14.9402 132.636 14.9556C133.888 14.9232 135.128 15.198 136.246 15.7557C137.235 16.2725 138.062 17.0482 138.636 17.9983L138.722 17.9982L138.719 15.9426C138.722 15.8327 138.769 15.7286 138.847 15.6514C138.926 15.5742 139.032 15.5299 139.143 15.5276L143.036 15.5214C143.147 15.523 143.253 15.5667 143.333 15.6437C143.412 15.7207 143.459 15.8249 143.463 15.9349L143.49 32.677C143.487 32.788 143.441 32.8934 143.361 32.9716C143.282 33.0496 143.175 33.0943 143.063 33.0962L139.174 33.1025C139.062 33.1005 138.956 33.056 138.876 32.9782C138.797 32.9005 138.75 32.7954 138.747 32.6847L138.744 30.6347L138.658 30.6348C138.086 31.5878 137.262 32.3667 136.274 32.8866C135.156 33.4457 133.918 33.724 132.666 33.6969C131.135 33.7174 129.626 33.3376 128.291 32.5955ZM159.706 27.8595C160.158 27.3825 160.51 26.8195 160.739 26.2044C160.967 25.5895 161.067 24.935 161.035 24.2805C161.06 23.6265 160.953 22.9743 160.724 22.3609C160.493 21.7475 160.143 21.1851 159.694 20.7057C158.731 19.8341 157.472 19.3518 156.169 19.3539C154.865 19.356 153.607 19.8424 152.647 20.7171C152.194 21.1944 151.843 21.7574 151.614 22.3723C151.387 22.9874 151.285 23.6417 151.319 24.2961C151.295 24.9501 151.401 25.6024 151.631 26.2157C151.861 26.8291 152.21 27.3915 152.66 27.8709C153.122 28.3251 153.673 28.6796 154.281 28.9122C154.888 29.1448 155.535 29.2505 156.186 29.2224C156.836 29.2572 157.488 29.1535 158.095 28.9185C158.703 28.6834 159.251 28.3224 159.707 27.8595L159.706 27.8595ZM153.805 32.8569C152.816 32.3399 151.989 31.5637 151.414 30.6128L151.328 30.613L151.331 32.6658C151.327 32.7761 151.282 32.8808 151.204 32.9585C151.124 33.0361 151.018 33.081 150.907 33.0835L146.957 33.0899C146.846 33.0877 146.74 33.0432 146.66 32.9658C146.582 32.8883 146.534 32.7838 146.531 32.6735L146.49 6.89449C146.492 6.78442 146.539 6.67987 146.618 6.60239C146.697 6.52491 146.803 6.48045 146.914 6.47815L150.864 6.47178C150.975 6.47334 151.081 6.51712 151.161 6.59407C151.241 6.67102 151.287 6.77529 151.291 6.88533L151.309 18.0034L151.395 18.0032C151.967 17.0517 152.791 16.273 153.778 15.7514C154.895 15.1926 156.133 14.9144 157.384 14.9412C158.914 14.9205 160.424 15.3019 161.759 16.0468C163.094 16.7928 164.182 17.9077 164.888 19.2553C165.69 20.8147 166.083 22.5485 166.035 24.2979C166.073 26.0459 165.687 27.7773 164.906 29.3455C164.195 30.6912 163.113 31.8084 161.787 32.5669C160.453 33.3133 158.945 33.6982 157.414 33.6824C156.162 33.6946 154.923 33.4107 153.804 32.8541L153.805 32.8569ZM172.698 33.0512L168.751 33.0576C168.639 33.0561 168.532 33.0117 168.452 32.9338C168.372 32.8559 168.327 32.7506 168.324 32.6398L168.282 6.86075C168.286 6.7502 168.332 6.64524 168.411 6.56769C168.491 6.49014 168.598 6.44599 168.709 6.44441L172.656 6.43804C172.768 6.44031 172.873 6.48435 172.952 6.56119C173.03 6.63804 173.078 6.74191 173.082 6.8516L173.124 32.6306C173.125 32.7119 173.102 32.7917 173.058 32.8601C173.014 32.9284 172.95 32.9821 172.875 33.0142C172.819 33.0382 172.759 33.0498 172.699 33.0484L172.699 33.0512L172.698 33.0512ZM181.967 19.5359C181.28 20.0809 180.809 20.8473 180.635 21.7012C180.622 21.7629 180.625 21.8265 180.641 21.8872C180.657 21.948 180.687 22.0045 180.728 22.0524C180.768 22.1002 180.82 22.1383 180.878 22.1638C180.935 22.1893 180.999 22.2015 181.062 22.1996L188.563 22.1875C188.622 22.1877 188.682 22.175 188.738 22.1506C188.794 22.1262 188.842 22.0905 188.882 22.0457C188.923 22.0011 188.953 21.9485 188.971 21.8915C188.99 21.8343 188.996 21.7741 188.988 21.7146C188.873 20.8861 188.457 20.1278 187.818 19.5816C186.995 18.9355 185.968 18.602 184.919 18.6419C183.864 18.6153 182.827 18.928 181.967 19.5345L181.965 19.5359L181.967 19.5359ZM191.566 17.3588C193.102 18.9892 193.873 21.2967 193.877 24.2826L193.878 24.7845C193.873 24.8947 193.828 24.9991 193.748 25.0763C193.668 25.1534 193.563 25.1976 193.452 25.1995L180.926 25.2197C180.863 25.221 180.802 25.2354 180.746 25.2619C180.689 25.2885 180.639 25.3266 180.599 25.3736C180.558 25.4207 180.528 25.4758 180.511 25.5352C180.494 25.5946 180.49 25.6568 180.499 25.718C180.663 26.756 181.199 27.7004 182.011 28.3777C183.006 29.1471 184.247 29.5378 185.507 29.4791C187.39 29.4501 189.191 28.7028 190.532 27.3927C190.577 27.3525 190.629 27.3224 190.686 27.3047C190.745 27.2869 190.805 27.2819 190.865 27.2898C190.924 27.2978 190.982 27.3186 191.032 27.3509C191.083 27.3832 191.126 27.4261 191.157 27.4765L193.065 30.1611C193.119 30.2468 193.143 30.3479 193.132 30.4485C193.122 30.5491 193.078 30.6436 193.008 30.7168C192.065 31.5163 191.027 32.1978 189.916 32.7463C188.532 33.3606 187.029 33.6657 185.513 33.6399C183.737 33.6828 181.977 33.2847 180.397 32.4818C178.972 31.7428 177.795 30.6084 177.011 29.2171C176.181 27.7252 175.758 26.0449 175.782 24.3415C175.748 22.6354 176.146 20.9481 176.94 19.4338C177.683 18.0447 178.816 16.8978 180.201 16.1315C181.706 15.3149 183.398 14.9009 185.114 14.9304C187.897 14.8934 190.03 15.7227 191.566 17.3574L191.566 17.3588ZM94.6728 9.42252C94.6819 9.99055 94.5209 10.5485 94.21 11.0258C93.899 11.5031 93.4524 11.8784 92.9264 12.1041C92.4004 12.3299 91.8187 12.396 91.2548 12.2941C90.6909 12.1923 90.1701 11.927 89.7583 11.5318C89.3466 11.1366 89.0622 10.6293 88.9413 10.074C88.8203 9.51868 88.8683 8.94029 89.079 8.41196C89.2897 7.88361 89.6537 7.42905 90.1251 7.10572C90.5964 6.78239 91.1539 6.60482 91.7269 6.59544L91.7411 6.59542C92.5059 6.59068 93.2417 6.88397 93.7902 7.41203C94.3385 7.9401 94.6556 8.66064 94.6728 9.41828L94.6728 9.42111L94.6728 9.42252Z" fill="#181D26"/>
<path d="M23.5003 1.31278L5.59022 8.69156C4.59452 9.10223 4.60682 10.5053 5.61062 10.8976L23.6187 17.9419C25.201 18.5608 26.962 18.558 28.5422 17.934L46.5277 10.8316C47.5297 10.436 47.538 9.03297 46.5405 8.62578L28.6071 1.30455C26.971 0.636623 25.1343 0.639586 23.5003 1.31278Z" fill="#FCB400"/>
<path d="M27.6834 21.7975L27.7119 39.468C27.7132 40.308 28.5692 40.8825 29.3569 40.5715L49.3984 32.8243C49.6219 32.7362 49.8135 32.5835 49.9483 32.3859C50.0832 32.1884 50.155 31.9553 50.1546 31.717L50.1261 14.0468C50.1248 13.2064 49.2688 12.6322 48.481 12.9432L28.4396 20.6903C28.2161 20.7786 28.0246 20.9313 27.8897 21.1289C27.7549 21.3264 27.683 21.5593 27.6834 21.7978" fill="#18BFFF"/>
<path d="M23.002 22.7167L17.0551 25.5744L16.4513 25.8649L3.89757 31.8513C3.10207 32.2334 2.08441 31.6599 2.08299 30.783L2.05624 14.1982C2.05573 13.881 2.2194 13.6068 2.43916 13.4005C2.52929 13.3112 2.6316 13.2349 2.7431 13.1738C3.04278 12.9947 3.47092 12.9464 3.83524 13.0885L22.8985 20.5393C23.8676 20.9185 23.9458 22.2633 23.002 22.717" fill="#F82B60"/>
<path d="M23.0019 22.7167L17.055 25.5744L2.43905 13.4002C2.52922 13.311 2.63153 13.2348 2.74301 13.1738C3.04268 12.9947 3.47083 12.9464 3.83515 13.0885L22.8985 20.5393C23.8674 20.9185 23.9456 22.2633 23.0019 22.717" fill="black" fill-opacity="0.25"/>
</g>
<defs>
<clipPath id="clip0_1_6705">
<rect width="194" height="41" fill="white" transform="translate(0.919922 0.846313) rotate(-0.0924153)"/>
</clipPath>
</defs>
</svg>
