<svg width="1920" height="1343" viewBox="0 0 1920 1343" fill="none" xmlns="http://www.w3.org/2000/svg">
<path d="M0 732H439C458.882 732 475 748.118 475 768V1307C475 1326.88 458.882 1343 439 1343H0V732Z" fill="#EBF6ED"/>
<path d="M1819.79 1117.55C1862.27 1221.68 1906.23 1262.14 1926 1256.48L1926 598L1926 339C1892.21 406.377 1637.08 742.379 1657.12 866.263C1683.74 1030.85 1766.69 987.378 1819.79 1117.55Z" fill="#BFE3C6" fill-opacity="0.32"/>
<path d="M92.9909 662.426L91.5452 673.389C91.5086 673.653 91.3924 673.899 91.2119 674.094C91.0315 674.289 90.7956 674.425 90.5358 674.482C90.2761 674.54 90.005 674.516 89.759 674.415C89.513 674.314 89.3038 674.14 89.1595 673.917L83.2257 664.586C83.1225 664.425 82.9858 664.289 82.8248 664.186C82.6639 664.083 82.4826 664.017 82.2934 663.991L71.3305 662.546C71.067 662.509 70.821 662.393 70.6256 662.212C70.4301 662.032 70.2945 661.796 70.2371 661.536C70.1797 661.276 70.2031 661.005 70.3042 660.759C70.4054 660.513 70.5794 660.304 70.8029 660.16L80.1337 654.226C80.2944 654.123 80.4307 653.986 80.5334 653.825C80.636 653.664 80.7025 653.483 80.7283 653.294L82.174 642.331C82.2105 642.067 82.3268 641.821 82.5072 641.626C82.6877 641.43 82.9236 641.295 83.1833 641.237C83.4431 641.18 83.7142 641.203 83.9602 641.305C84.2062 641.406 84.4154 641.58 84.5596 641.803L90.4935 651.134C90.5966 651.295 90.7334 651.431 90.8943 651.534C91.0553 651.636 91.2366 651.703 91.4257 651.729L102.389 653.174C102.652 653.211 102.898 653.327 103.094 653.508C103.289 653.688 103.425 653.924 103.482 654.184C103.54 654.443 103.516 654.714 103.415 654.961C103.314 655.207 103.14 655.416 102.916 655.56L93.5854 661.494C93.4248 661.597 93.2884 661.734 93.1858 661.895C93.0831 662.056 93.0166 662.237 92.9909 662.426V662.426Z" fill="#FFC27A"/>
<g clip-path="url(#clip0_150_70)">
<path opacity="0.11" d="M800.547 1218H204.158C198.984 1218 194.726 1213.78 194.726 1208.58C194.726 1203.41 198.949 1199.15 204.158 1199.15H800.547C805.721 1199.15 809.98 1203.37 809.98 1208.58C809.98 1213.78 805.721 1218 800.547 1218Z" fill="black"/>
<path d="M648.608 911.302L691.195 911.408L695.946 917.279L728.326 998.955L725.018 1004.62L654.767 1005.14L642.942 975.152L648.608 911.302Z" fill="#BDDFE0"/>
<path d="M367.149 1162.48H170.687C166.886 1162.48 163.894 1159.39 164.035 1155.59L164.634 1138.01C164.774 1134.21 167.977 1131.12 171.778 1131.12H368.24C372.041 1131.12 375.033 1134.21 374.892 1138.01L374.294 1155.59C374.153 1159.39 370.95 1162.48 367.149 1162.48Z" fill="#2B2B2B"/>
<path d="M750.429 1115.12C769.118 1115.12 783.548 1137.03 782.633 1164.07C781.718 1191.1 765.88 1211.57 747.191 1211.57C728.502 1211.57 714.037 1191.1 714.917 1164.07C715.832 1137.03 731.74 1115.12 750.429 1115.12Z" fill="#323231"/>
<path d="M747.191 1211.57H718.084L721.322 1115.12H750.429L747.191 1211.57Z" fill="#323231"/>
<path d="M721.322 1115.12C740.011 1115.12 754.441 1137.03 753.526 1164.07C752.611 1191.1 736.773 1211.57 718.084 1211.57C699.395 1211.57 684.895 1191.1 685.81 1164.07C686.725 1137.03 702.633 1115.12 721.322 1115.12Z" fill="#414141"/>
<path d="M720.794 1131.12C733.394 1131.12 743.108 1145.89 742.475 1164.1C741.876 1182.31 731.142 1197.08 718.577 1197.08C705.977 1197.08 696.263 1182.31 696.896 1164.1C697.495 1145.89 708.194 1131.12 720.794 1131.12Z" fill="#282828"/>
<path d="M476.854 1115.12C495.542 1115.12 509.973 1136.78 509.093 1163.54C508.213 1190.26 492.375 1210.51 473.651 1210.51C454.962 1210.51 440.461 1190.29 441.376 1163.54C442.256 1136.78 458.165 1115.12 476.854 1115.12Z" fill="#323231"/>
<path d="M473.651 1210.48H451.583L447.747 1115.12H476.854L473.651 1210.48Z" fill="#323231"/>
<path d="M453.097 1115.12C471.785 1115.12 486.216 1136.78 485.336 1163.54C484.456 1190.26 468.618 1210.51 449.894 1210.51C431.17 1210.51 416.704 1190.26 417.619 1163.54C418.499 1136.78 434.408 1115.12 453.097 1115.12Z" fill="#414141"/>
<path d="M447.219 1130.94C459.819 1130.94 469.533 1145.54 468.935 1163.54C468.336 1181.54 457.637 1196.13 445.037 1196.13C432.437 1196.13 422.723 1181.54 423.321 1163.54C423.919 1145.54 434.619 1130.94 447.219 1130.94Z" fill="#282828"/>
<path d="M539.079 1147.58H720.301C725.334 1147.58 729.347 1151.69 729.171 1156.75L728.748 1169.83C728.572 1174.86 724.314 1179.01 719.281 1179.01H538.059C533.026 1179.01 529.013 1174.89 529.189 1169.83L529.612 1156.75C529.788 1151.69 534.046 1147.58 539.079 1147.58Z" fill="#353535"/>
<path d="M268.355 1147.58H449.577C454.61 1147.58 458.622 1151.69 458.446 1156.75L458.024 1169.83C457.848 1174.86 453.589 1179.01 448.556 1179.01H267.299C262.266 1179.01 258.254 1174.89 258.43 1169.83L258.852 1156.75C259.028 1151.69 263.322 1147.58 268.355 1147.58Z" fill="#353535"/>
<path d="M717.134 1009.96H732.338C735.295 1009.96 737.653 1012.39 737.547 1015.34V1015.62C737.442 1018.57 734.943 1021 731.986 1021H716.782C713.825 1021 711.467 1018.57 711.573 1015.62V1015.34C711.643 1012.39 714.177 1009.96 717.134 1009.96Z" fill="#3D3D3D"/>
<path d="M717.521 983.063H741.313C743.671 983.063 745.502 985.489 745.396 988.478L744.903 1002.68C744.798 1005.64 742.791 1008.1 740.433 1008.1H716.641C714.283 1008.1 712.453 1005.67 712.558 1002.68L713.051 988.478C713.157 985.489 715.163 983.063 717.521 983.063Z" fill="#3D3D3D"/>
<path d="M198.175 880.643C174.347 953.142 174.031 1104.61 176.459 1138.19C176.987 1145.75 234.919 1152.5 242.521 1152.5H608.344L761.762 1134.99L818.251 1132.81L820.609 1062.1C820.926 1052.36 815.189 1043.68 806.179 1040.23L749.373 1018.57C745.466 1017.1 742.44 1014.04 740.961 1010.14L689.893 873.47C685.106 865.348 676.377 859.231 666.804 859.231L502.793 858.774L496.282 858.949L216.723 858.035C208.487 858.035 200.744 872.732 198.175 880.643ZM647.095 915.24C647.517 914.396 648.115 913.693 648.854 913.13C649.981 912.04 651.318 911.126 652.972 910.423C655.577 909.333 657.829 909.931 659.413 911.337C660.011 910.986 660.715 910.704 661.525 910.529C666.558 909.509 671.626 909.966 676.624 910.493C679.299 910.775 682.29 910.775 685.071 911.267C690.456 910.845 695.313 914.677 696.122 920.022C696.404 920.444 696.65 920.936 696.826 921.463C698.164 925.26 699.29 929.163 700.24 933.066C700.944 933.664 701.507 934.543 701.859 935.668C702.704 938.375 703.513 941.082 704.288 943.825C707.138 951.56 709.32 959.541 712.84 967.03C716.993 975.89 720.337 984.926 722.906 994.384C726.672 997.584 724.525 1004.16 720.09 1005.49C719.034 1005.95 717.873 1006.23 716.817 1006.23H716.536C716.008 1006.23 715.515 1006.16 715.057 1006.02C701.824 1007.82 688.872 1004.97 675.674 1005.81C667.191 1006.37 654.732 1008.84 649.277 1000.71C647.552 998.146 646.919 995.017 646.778 991.853C645.546 990.693 644.877 988.97 645.265 986.72C645.968 982.465 645.335 978.457 645.159 974.238C645.018 969.948 645.546 965.729 645.933 961.475C646.637 953.845 646.672 946.602 645.37 939.113C644.103 931.941 642.695 921.78 647.095 915.24Z" fill="#89C147"/>
<path d="M214.33 929.234H489.841C496.95 942.946 509.093 953.74 519.159 965.307C531.864 979.934 544.711 994.349 558.719 1007.71C581.948 1029.83 607.746 1052.61 621.332 1082.14C622.035 1084.74 623.302 1087.38 625.273 1089.91C630.729 1096.95 632.453 1104.29 633.967 1114.14C635.797 1125.74 636.29 1137.52 636.43 1149.33L608.309 1152.53H242.521C234.884 1152.53 176.987 1145.82 176.459 1138.22C174.031 1104.65 172.271 1014.99 196.134 942.489C198.703 934.578 206.129 929.234 214.33 929.234Z" fill="#2B2B2B"/>
<path d="M208.522 858.035L505.151 858.984C513.668 859.02 521.27 864.856 525.036 872.31C529.858 881.838 569.453 980.285 580.821 1008.62C582.757 1013.48 586.629 1017.27 591.556 1019.14L646.109 1039.92C655.542 1043.5 661.56 1052.64 661.208 1062.84L658.85 1132.77L601.2 1137.03C601.2 1137.03 594.161 1107.53 553.686 1107.74C508.494 1107.99 503.919 1152.5 503.919 1152.5H333.889C333.889 1152.5 318.192 1112.56 286.164 1112.56C254.136 1112.56 247.343 1152.5 247.343 1152.5L189.059 1152.39C181.422 1152.39 175.333 1145.78 174.805 1138.22C172.377 1104.61 172.165 956.658 189.974 880.537C191.875 872.486 196.838 857.402 208.522 858.035Z" fill="#ABD661"/>
<path d="M821.102 1129.5C825.044 1129.5 828.106 1132.7 828 1136.61L827.472 1152.43C827.296 1157.28 823.249 1161.18 818.427 1161.18L660.399 1163.22L662.158 1128.8L821.102 1129.5Z" fill="#474747"/>
<path d="M485.617 910.529L515.956 910.845C518.138 910.88 520.039 912.146 520.848 914.15L553.51 995.088C554.988 998.709 552.172 1002.79 548.195 1002.79H482.485C479.423 1002.79 477.065 1000.33 477.17 997.268L479.88 916.013C479.986 912.955 482.555 910.493 485.617 910.529Z" fill="#3D3D3D"/>
<path d="M511.134 937.777H530.386L553.51 995.088C554.988 998.709 552.172 1002.79 548.195 1002.79H501.948L503.884 944.704C504.025 940.871 507.263 937.777 511.134 937.777Z" fill="#474646"/>
<path d="M556.994 910.74L653.359 911.232C651.6 912.146 650.262 913.974 650.192 916.049L647.482 997.303C647.376 1000.36 649.91 1003.39 652.972 1003.39H669.585C669.338 1003.77 669.092 1004.19 668.916 1004.65L590.254 1003.77C588.74 1003.77 587.403 1002.82 586.84 1001.45L553.263 916.084C552.243 913.517 554.214 910.704 556.994 910.74Z" fill="#3D3D3D"/>
<path d="M664.516 950.927L672.682 996.142L586.84 1001.42L561.288 938.41L649.347 938.34C656.879 938.34 663.179 943.579 664.516 950.927Z" fill="#474646"/>
<path d="M672.4 978.492C687.077 978.492 699.255 985.946 703.02 996.178C700.733 996.248 698.375 996.248 695.981 996.248C692.215 989.568 683.029 984.891 672.189 984.891C664.798 984.891 656.949 989.286 653.711 993.857C652.409 992.205 648.643 994.666 647.059 993.294C650.227 984.434 663.285 978.492 672.4 978.492Z" fill="#515151"/>
<g opacity="0.08">
<path d="M692.708 984.083C682.185 986.333 671.168 984.294 660.821 981.024C664.833 979.406 668.951 978.457 672.4 978.457C680.178 978.492 687.218 980.602 692.708 984.083Z" fill="white"/>
</g>
<path d="M510.113 1152.04C510.113 1152.04 513.809 1155.45 508.565 1155.42C503.321 1155.35 503.954 1152.5 503.954 1152.5L510.113 1152.04Z" fill="#2B2B2B"/>
<path d="M585.186 996.705C583.25 1000.57 586.241 1005.21 590.606 1005.18L719.21 1003.77C721.146 1003.74 725.053 1004.9 726.074 1003.24L724.314 992.591C714.67 987.247 585.186 996.705 585.186 996.705Z" fill="#6D6D6D"/>
<path d="M252.763 1152.01C252.763 1152.01 257.163 1155.59 251.919 1155.59C246.463 1155.59 247.378 1152.5 247.378 1152.5L252.763 1152.01Z" fill="#2B2B2B"/>
<path d="M603.919 1165.48C605.659 1138.83 592.005 1116.25 573.422 1115.04C554.84 1113.83 538.365 1134.45 536.625 1161.09C534.886 1187.74 548.539 1210.32 567.122 1211.53C585.704 1212.74 602.179 1192.12 603.919 1165.48Z" fill="#323231"/>
<path d="M568.644 1211.57H539.643L542.881 1114.98H571.917L568.644 1211.57Z" fill="#323231"/>
<path d="M574.898 1165.46C576.638 1138.81 562.984 1116.23 544.402 1115.02C525.819 1113.81 509.344 1134.43 507.604 1161.07C505.865 1187.71 519.518 1210.3 538.101 1211.51C556.683 1212.72 573.158 1192.1 574.898 1165.46Z" fill="#414141"/>
<path d="M542.353 1130.77C554.917 1130.77 564.596 1145.32 563.998 1163.29C563.4 1181.26 552.735 1195.81 540.17 1195.81C527.606 1195.81 517.927 1181.26 518.525 1163.29C519.124 1145.32 529.788 1130.77 542.353 1130.77Z" fill="#323231"/>
<path d="M542.141 1137.27C552.172 1137.27 559.95 1148.91 559.458 1163.29C558.965 1177.67 550.448 1189.31 540.382 1189.31C530.351 1189.31 522.573 1177.67 523.065 1163.29C523.558 1148.91 532.075 1137.27 542.141 1137.27Z" fill="#C8CAC4"/>
<path d="M557.583 1164.33C558.427 1151.4 551.799 1140.45 542.78 1139.86C533.76 1139.27 525.764 1149.27 524.92 1162.2C524.076 1175.12 530.703 1186.08 539.723 1186.67C548.743 1187.25 556.739 1177.25 557.583 1164.33Z" fill="#C8CAC4"/>
<path d="M542.036 1139.88C542.775 1139.88 543.479 1139.98 544.218 1140.12C536.158 1141.63 529.647 1151.44 529.26 1163.33C528.873 1175.21 534.715 1184.99 542.669 1186.53C541.965 1186.67 541.226 1186.78 540.487 1186.78C531.442 1186.78 524.473 1176.3 524.896 1163.36C525.318 1150.35 532.991 1139.88 542.036 1139.88Z" fill="#AFAFAD"/>
<path d="M547.491 1141.46C549.497 1142.3 550.764 1144.09 550.307 1145.47C549.849 1146.84 547.878 1147.26 545.872 1146.41C543.866 1145.57 542.599 1143.78 543.056 1142.41C543.514 1141.04 545.485 1140.61 547.491 1141.46Z" fill="#414141"/>
<path d="M555.305 1159.56C556.853 1159.56 558.05 1161.57 557.979 1164.07C557.909 1166.56 556.572 1168.57 555.023 1168.57C553.474 1168.57 552.278 1166.56 552.348 1164.07C552.418 1161.57 553.756 1159.56 555.305 1159.56Z" fill="#414141"/>
<path d="M544.394 1180.45C546.506 1179.68 548.477 1180.31 548.829 1181.89C549.181 1183.47 547.773 1185.41 545.696 1186.18C543.584 1186.95 541.613 1186.32 541.262 1184.74C540.91 1183.16 542.317 1181.22 544.394 1180.45Z" fill="#414141"/>
<path d="M530.421 1175.18C531.512 1177.18 531.935 1179.15 531.372 1179.61C530.808 1180.06 529.506 1178.83 528.45 1176.83C527.394 1174.82 526.937 1172.85 527.5 1172.4C528.063 1171.94 529.365 1173.17 530.421 1175.18Z" fill="#414141"/>
<path d="M531.899 1147.01C532.357 1147.36 531.935 1149.19 530.914 1151.13C529.893 1153.06 528.697 1154.33 528.239 1153.97C527.782 1153.62 528.204 1151.79 529.225 1149.86C530.245 1147.93 531.442 1146.66 531.899 1147.01Z" fill="#414141"/>
<path d="M540.276 1153.59C544.112 1153.59 547.069 1157.98 546.893 1163.36C546.717 1168.78 543.479 1173.14 539.643 1173.14C535.806 1173.14 532.85 1168.74 533.026 1163.36C533.202 1157.98 536.475 1153.59 540.276 1153.59Z" fill="#414141"/>
<path d="M548.617 1166.21C549.427 1166.21 550.025 1167.02 549.99 1168C549.955 1168.99 549.286 1169.8 548.477 1169.8C547.667 1169.8 547.069 1168.99 547.104 1168C547.139 1167.02 547.843 1166.21 548.617 1166.21Z" fill="#414141"/>
<path d="M548.899 1157.67C549.708 1157.67 550.307 1158.47 550.272 1159.46C550.236 1160.44 549.568 1161.25 548.758 1161.25C547.949 1161.25 547.35 1160.44 547.386 1159.46C547.456 1158.47 548.125 1157.67 548.899 1157.67Z" fill="#414141"/>
<path d="M545.168 1151.34C545.978 1151.34 546.576 1152.15 546.541 1153.13C546.506 1154.11 545.837 1154.92 545.027 1154.92C544.218 1154.92 543.62 1154.11 543.655 1153.13C543.69 1152.15 544.359 1151.34 545.168 1151.34Z" fill="#414141"/>
<path d="M540.558 1148.67C541.367 1148.67 541.965 1149.47 541.93 1150.46C541.895 1151.44 541.226 1152.25 540.417 1152.25C539.607 1152.25 539.009 1151.44 539.044 1150.46C539.079 1149.44 539.748 1148.67 540.558 1148.67Z" fill="#414141"/>
<path d="M535.032 1151.79C535.841 1151.79 536.44 1152.6 536.405 1153.59C536.369 1154.57 535.701 1155.38 534.891 1155.38C534.082 1155.38 533.483 1154.57 533.518 1153.59C533.554 1152.6 534.222 1151.79 535.032 1151.79Z" fill="#414141"/>
<path d="M531.97 1157.67C532.779 1157.67 533.378 1158.47 533.342 1159.46C533.307 1160.44 532.639 1161.25 531.829 1161.25C531.02 1161.25 530.421 1160.44 530.456 1159.46C530.492 1158.47 531.16 1157.67 531.97 1157.67Z" fill="#414141"/>
<path d="M533.038 1168.12C533.13 1167.13 532.561 1166.27 531.768 1166.2C530.974 1166.12 530.256 1166.86 530.165 1167.85C530.073 1168.84 530.641 1169.69 531.435 1169.77C532.228 1169.84 532.946 1169.1 533.038 1168.12Z" fill="#414141"/>
<path d="M534.715 1172.5C535.525 1172.5 536.123 1173.31 536.088 1174.3C536.053 1175.28 535.384 1176.09 534.574 1176.09C533.765 1176.09 533.167 1175.28 533.202 1174.3C533.237 1173.31 533.906 1172.5 534.715 1172.5Z" fill="#414141"/>
<path d="M540.03 1175.21C540.839 1175.21 541.438 1176.02 541.402 1177C541.367 1177.99 540.698 1178.8 539.889 1178.8C539.079 1178.8 538.481 1177.99 538.516 1177C538.551 1176.02 539.22 1175.21 540.03 1175.21Z" fill="#414141"/>
<path d="M545.168 1172.5C545.978 1172.5 546.576 1173.31 546.541 1174.3C546.506 1175.28 545.837 1176.09 545.027 1176.09C544.218 1176.09 543.62 1175.28 543.655 1174.3C543.69 1173.31 544.359 1172.5 545.168 1172.5Z" fill="#414141"/>
<path d="M345.375 1164.85C347.063 1138.52 333.696 1116.23 315.519 1115.06C297.342 1113.9 281.238 1134.31 279.55 1160.64C277.862 1186.98 291.229 1209.27 309.406 1210.44C327.583 1211.6 343.687 1191.19 345.375 1164.85Z" fill="#323231"/>
<path opacity="0.22" d="M714.776 1005.14L657.513 1004.51C657.513 1004.51 573.289 912.005 572.234 910.81L632.664 910.74L714.776 1005.14Z" fill="white"/>
<path opacity="0.11" d="M548.16 1001.52H510.641L478.649 964.745L480.268 916.822L553.932 997.443C553.404 999.904 550.94 1001.52 548.16 1001.52Z" fill="white"/>
<path d="M722.308 1007.89C722.272 1007.89 722.272 1007.89 722.237 1007.89L590.219 1006.44C587.614 1006.41 585.291 1004.83 584.341 1002.4L550.764 917.033C549.99 915.029 550.236 912.744 551.468 910.95C552.7 909.122 554.777 908.032 556.959 908.032H556.994L691.23 908.7C693.94 908.7 696.263 910.353 697.213 912.884L728.572 999.025C729.312 1001.03 728.995 1003.28 727.728 1005.04C726.461 1006.83 724.455 1007.89 722.308 1007.89ZM556.959 913.412C556.36 913.412 556.008 913.798 555.903 913.974C555.762 914.185 555.551 914.607 555.762 915.064L589.339 1000.43C589.479 1000.82 589.867 1001.06 590.289 1001.06L722.308 1002.51C722.906 1002.51 723.223 1002.12 723.363 1001.94C723.504 1001.73 723.715 1001.35 723.539 1000.85L692.18 914.713C692.039 914.326 691.652 914.045 691.23 914.045L556.959 913.412Z" fill="#3A3A3A"/>
<path d="M310.871 1210.48H282.468L285.671 1114.98H314.074L310.871 1210.48Z" fill="#323231"/>
<path d="M316.98 1164.86C318.668 1138.53 305.301 1116.24 287.124 1115.07C268.947 1113.91 252.843 1134.32 251.155 1160.65C249.467 1186.99 262.834 1209.28 281.011 1210.45C299.188 1211.61 315.292 1191.2 316.98 1164.86Z" fill="#414141"/>
<path d="M285.143 1130.59C297.426 1130.59 306.894 1145.01 306.296 1162.76C305.697 1180.52 295.244 1194.94 282.961 1194.94C270.678 1194.94 261.21 1180.52 261.809 1162.76C262.407 1144.97 272.86 1130.59 285.143 1130.59Z" fill="#323231"/>
<path d="M284.932 1137.03C294.752 1137.03 302.354 1148.56 301.861 1162.76C301.368 1176.97 293.027 1188.5 283.207 1188.5C273.388 1188.5 265.786 1176.97 266.278 1162.76C266.736 1148.52 275.112 1137.03 284.932 1137.03Z" fill="#C8CAC4"/>
<path d="M284.932 1137.03C294.752 1137.03 302.354 1148.56 301.861 1162.76C301.368 1176.97 293.027 1188.5 283.207 1188.5C273.388 1188.5 265.786 1176.97 266.278 1162.76C266.736 1148.52 275.112 1137.03 284.932 1137.03Z" fill="#C8CAC4"/>
<path d="M284.052 1140.47C286.023 1140.47 287.888 1141.04 289.578 1141.98C283.735 1145.22 279.371 1153.27 279.054 1162.73C278.738 1172.19 282.539 1180.24 288.17 1183.47C286.41 1184.46 284.51 1184.99 282.539 1184.99C274.021 1184.99 267.475 1175.03 267.897 1162.73C268.32 1150.46 275.535 1140.47 284.052 1140.47Z" fill="#8C8C8C"/>
<path d="M292.358 1151.86C296.617 1151.86 299.89 1156.79 299.679 1162.83C299.468 1168.88 295.878 1173.8 291.619 1173.8C287.361 1173.8 284.087 1168.88 284.299 1162.83C284.51 1156.79 288.135 1151.86 292.358 1151.86Z" fill="#414141"/>
<path d="M301.58 1166C301.404 1167.33 301.192 1168.64 300.911 1169.9C300.313 1169.62 299.925 1168.88 299.961 1168.04C299.996 1166.91 300.735 1166.03 301.58 1166Z" fill="#414141"/>
<path d="M301.509 1156.54C301.685 1157.81 301.791 1159.11 301.826 1160.44C301.791 1160.44 301.791 1160.44 301.756 1160.44C300.876 1160.44 300.172 1159.53 300.207 1158.44C300.313 1157.49 300.84 1156.75 301.509 1156.54Z" fill="#414141"/>
<path d="M297.778 1149.37C298.658 1149.37 299.362 1150.28 299.327 1151.37C299.292 1152.5 298.553 1153.38 297.673 1153.38C296.793 1153.38 296.089 1152.46 296.124 1151.37C296.124 1150.25 296.899 1149.37 297.778 1149.37Z" fill="#414141"/>
<path d="M292.675 1146.34C293.555 1146.34 294.259 1147.26 294.224 1148.35C294.189 1149.47 293.449 1150.35 292.57 1150.35C291.69 1150.35 290.986 1149.44 291.021 1148.35C291.021 1147.22 291.795 1146.34 292.675 1146.34Z" fill="#414141"/>
<path d="M286.551 1149.86C287.431 1149.86 288.135 1150.77 288.1 1151.86C288.064 1152.99 287.325 1153.87 286.445 1153.87C285.566 1153.87 284.862 1152.95 284.897 1151.86C284.897 1150.77 285.671 1149.86 286.551 1149.86Z" fill="#414141"/>
<path d="M633.368 1073.04H815.752C819.764 1073.04 822.932 1076.31 822.791 1080.31L821.806 1109.67C821.665 1114.28 817.758 1118.04 813.147 1118.04H791.925C790.657 1118.04 789.531 1118.85 789.074 1120.05L787.877 1123.31C787.419 1124.51 786.293 1125.32 785.026 1125.32H705.695C704.428 1125.32 703.337 1124.51 702.985 1123.28L702.07 1120.08C701.718 1118.88 700.627 1118.04 699.36 1118.04H637.627C635.304 1118.04 633.404 1116 633.122 1113.72L628.582 1078.31C628.159 1075.46 630.482 1073.04 633.368 1073.04Z" fill="#474747"/>
<path d="M283.102 1156.44C283.982 1156.44 284.686 1157.35 284.65 1158.44C284.615 1159.56 283.876 1160.44 282.996 1160.44C282.116 1160.44 281.412 1159.53 281.448 1158.44C281.483 1157.31 282.222 1156.44 283.102 1156.44Z" fill="#414141"/>
<path d="M282.785 1166C283.665 1166 284.369 1166.91 284.334 1168C284.299 1169.13 283.559 1170.01 282.68 1170.01C281.8 1170.01 281.096 1169.09 281.131 1168C281.166 1166.91 281.905 1166 282.785 1166Z" fill="#414141"/>
<path d="M286.164 1173.07C287.044 1173.07 287.748 1173.98 287.712 1175.07C287.677 1176.2 286.938 1177.07 286.058 1177.07C285.178 1177.07 284.474 1176.16 284.51 1175.07C284.545 1173.98 285.284 1173.07 286.164 1173.07Z" fill="#414141"/>
<path d="M292.077 1176.09C292.957 1176.09 293.661 1177 293.625 1178.09C293.59 1179.22 292.851 1180.1 291.971 1180.1C291.091 1180.1 290.387 1179.18 290.423 1178.09C290.423 1177 291.197 1176.09 292.077 1176.09Z" fill="#414141"/>
<path d="M489.841 1149.47H466.858C464.43 1149.47 462.177 1148.52 460.523 1146.8C458.869 1145.08 457.989 1142.79 458.059 1140.37L465.908 906.837C466.084 901.914 470.202 897.906 475.129 897.906H521.13C524.649 897.906 527.852 899.981 529.225 903.215L564.244 987.142C564.737 988.302 564.983 989.603 564.948 990.939L562.133 1074.41C561.992 1078.94 558.402 1082.78 553.791 1083.27C518.349 1087.21 502.652 1129.93 498.675 1142.9C497.478 1146.8 493.853 1149.47 489.841 1149.47ZM475.129 903.286C473.052 903.286 471.328 904.973 471.258 907.048L463.409 1140.58C463.374 1141.53 463.726 1142.44 464.359 1143.11C464.993 1143.78 465.908 1144.16 466.858 1144.16H489.841C491.53 1144.16 493.044 1143.04 493.536 1141.39C497.76 1127.6 514.478 1082.32 553.193 1077.99C555.164 1077.78 556.712 1076.17 556.748 1074.27L559.563 990.798C559.598 990.271 559.493 989.743 559.282 989.286L524.262 905.36C523.734 904.13 522.502 903.321 521.094 903.321H475.129V903.286Z" fill="#89C147"/>
<path d="M297.778 1173.07C298.658 1173.07 299.292 1173.94 299.292 1175C299.045 1175.6 298.799 1176.16 298.518 1176.72C298.271 1176.93 297.954 1177.07 297.638 1177.07C296.758 1177.07 296.054 1176.16 296.089 1175.07C296.124 1173.98 296.899 1173.07 297.778 1173.07Z" fill="#414141"/>
<path opacity="0.25" d="M284.932 1137.03C294.752 1137.03 302.354 1148.56 301.861 1162.76C301.65 1169.13 299.855 1174.96 297.039 1179.46C289.683 1170.89 277.787 1162.38 266.278 1164.42C266.278 1163.89 266.243 1163.33 266.278 1162.76C266.736 1148.52 275.112 1137.03 284.932 1137.03Z" fill="black"/>
<path d="M290.458 1100.18C301.368 1099.83 314.074 1103.24 325.02 1112.2C334.875 1120.26 343.286 1133.02 347.791 1152.53L339.591 1154.08C335.121 1154.92 330.757 1152.67 328.927 1148.59C323.577 1136.43 310.026 1112.56 286.164 1112.56C254.101 1112.56 247.343 1152.5 247.343 1152.5C247.343 1152.5 253.115 1101.34 290.458 1100.18Z" fill="#89C147"/>
<path d="M645.229 1080.31H693.518C695.84 1080.31 697.635 1082.18 697.565 1084.5L696.861 1105.7C696.791 1108.02 694.855 1109.88 692.532 1109.88H647.587C645.511 1109.88 643.821 1108.37 643.575 1106.37L640.9 1085.17C640.583 1082.6 642.625 1080.31 645.229 1080.31Z" fill="#F2F2F2"/>
<path d="M645.229 1080.31H660.399L659.413 1109.88H647.623C645.546 1109.88 643.857 1108.37 643.61 1106.37L640.935 1085.17C640.583 1082.6 642.625 1080.31 645.229 1080.31Z" fill="#EA5615"/>
<path d="M802.554 1080.31H819.166C821.911 1080.31 824.058 1082.53 823.953 1085.27L823.284 1105C823.178 1107.7 820.926 1109.88 818.251 1109.88H799.421C797.098 1109.88 795.303 1108.02 795.374 1105.7L797.239 1083.76C797.345 1081.44 800.266 1080.31 802.554 1080.31Z" fill="#F2F2F2"/>
<path d="M818.286 1111.47H799.456C797.908 1111.47 796.465 1110.87 795.374 1109.74C794.318 1108.65 793.755 1107.18 793.79 1105.63L795.585 1084.36C795.69 1081.26 798.365 1078.7 801.533 1078.7H819.236C820.996 1078.7 822.65 1079.4 823.847 1080.63C825.044 1081.9 825.677 1083.55 825.642 1085.31L824.973 1105.03C824.832 1108.58 821.841 1111.47 818.286 1111.47ZM801.498 1081.93C800.055 1081.93 798.823 1083.13 798.788 1084.57L796.993 1105.84C796.958 1106.44 797.204 1107.07 797.661 1107.56C798.119 1108.06 798.752 1108.3 799.421 1108.3H818.251C820.081 1108.3 821.63 1106.83 821.7 1104.96L822.369 1085.24C822.404 1084.36 822.087 1083.51 821.489 1082.92C820.89 1082.28 820.081 1081.97 819.201 1081.97H801.498V1081.93Z" fill="#353535"/>
<path d="M709.461 1078.84L784.674 1078.8C787.419 1078.8 789.461 1081.16 789.109 1083.9L784.674 1116.78C784.357 1119.13 782.316 1120.92 779.923 1120.92H712.171C709.848 1120.92 707.913 1119.2 707.701 1116.88L704.675 1084.01C704.428 1081.26 706.681 1078.84 709.461 1078.84Z" fill="#353535"/>
<path d="M790.341 1089.74H703.126L703.267 1085.03H790.481L790.341 1089.74Z" fill="#474747"/>
<path d="M789.883 1102.78H702.669L702.845 1098.07H790.059L789.883 1102.78Z" fill="#474747"/>
<path d="M789.461 1115.86H702.246L702.387 1111.15H789.602L789.461 1115.86Z" fill="#474747"/>
<path d="M700.064 1139.88H796.465C797.873 1139.88 798.999 1141.04 798.928 1142.44L798.823 1146.1C798.788 1147.5 797.591 1148.67 796.183 1148.67H699.782C698.375 1148.67 697.248 1147.5 697.319 1146.1L697.424 1142.44C697.46 1141.04 698.621 1139.88 700.064 1139.88Z" fill="#353535"/>
<path d="M582.968 1092.97C598.912 1099.58 611.195 1120.4 612.216 1135.09L589.163 1137.13C589.163 1137.13 580.892 1108.41 549.11 1108.62C513.422 1108.9 503.919 1152.46 503.919 1152.46C503.919 1152.46 505.749 1125.46 521.094 1107.04C532.779 1092.97 557.663 1082.49 582.968 1092.97Z" fill="#89C147"/>
<path d="M585.714 1132.39L662.018 1128.8C665.96 1128.8 669.057 1132.7 668.916 1136.61L668.388 1151.3C668.212 1156.15 663.813 1163.22 658.956 1163.22H657.548L590.535 1161.01C587.016 1161.01 583.989 1161.57 583.531 1158.09C582.968 1153.94 582.792 1138.89 582.37 1136.43C581.983 1134.36 583.602 1132.49 585.714 1132.39Z" fill="#3D3D3D"/>
<path d="M478.05 1027.96H479.88C481.781 1027.96 483.33 1029.47 483.259 1031.3L482.45 1055.32C482.379 1057.14 480.76 1058.66 478.86 1058.66H477.03C475.129 1058.66 473.58 1057.14 473.651 1055.32L474.46 1031.3C474.495 1029.47 476.114 1027.96 478.05 1027.96Z" fill="#3D3D3D"/>
<path d="M548.195 1005.46H482.485C480.268 1005.46 478.226 1004.58 476.713 1003.03C475.199 1001.45 474.39 999.377 474.46 997.197L477.17 915.943C477.311 911.478 481.077 907.856 485.547 907.856C485.582 907.856 485.617 907.856 485.617 907.856L515.956 908.173C519.194 908.208 522.08 910.177 523.312 913.166L555.973 994.103C556.994 996.635 556.677 999.483 555.129 1001.77C553.545 1004.09 550.975 1005.46 548.195 1005.46ZM485.582 913.201C483.998 913.201 482.626 914.537 482.555 916.119L479.845 997.373C479.81 998.111 480.092 998.815 480.584 999.307C481.077 999.834 481.746 1000.12 482.52 1000.12H548.23C549.251 1000.12 550.166 999.623 550.729 998.744C551.292 997.9 551.398 996.951 551.046 996.072L518.384 915.134C517.997 914.15 517.047 913.517 515.956 913.517L485.582 913.201Z" fill="#3A3A3A"/>
<path d="M551.82 992.064H569.136C572.515 992.064 575.155 995.088 575.049 998.779V999.131C574.909 1002.82 572.058 1005.85 568.714 1005.85H551.398C548.019 1005.85 545.379 1002.82 545.485 999.131V998.779C545.591 995.088 548.441 992.064 551.82 992.064Z" fill="#303030"/>
<path d="M524.614 976.98H552.419C555.164 976.98 557.311 979.793 557.205 983.204L556.642 999.588C556.536 1003 554.178 1005.81 551.433 1005.81H523.629C520.883 1005.81 518.736 1003 518.842 999.588L519.405 983.204C519.511 979.793 521.869 976.98 524.614 976.98Z" fill="#303030"/>
<path d="M532.287 976.98H560.091C562.836 976.98 564.983 979.793 564.878 983.204L564.315 999.588C564.209 1003 561.851 1005.81 559.106 1005.81H531.301C528.556 1005.81 526.409 1003 526.515 999.588L527.078 983.204C527.183 979.793 529.541 976.98 532.287 976.98Z" fill="#3D3D3D"/>
<path d="M692.497 1111.47H647.587C644.737 1111.47 642.343 1109.36 641.956 1106.54L639.281 1085.34C639.07 1083.69 639.598 1082 640.724 1080.7C641.851 1079.4 643.47 1078.7 645.159 1078.7H693.447C694.996 1078.7 696.439 1079.3 697.53 1080.42C698.586 1081.51 699.149 1082.99 699.114 1084.53L698.41 1105.74C698.339 1108.9 695.665 1111.47 692.497 1111.47ZM645.229 1081.93C644.455 1081.93 643.716 1082.28 643.188 1082.88C642.66 1083.48 642.414 1084.25 642.519 1084.99L645.194 1106.19C645.335 1107.42 646.356 1108.3 647.623 1108.3H692.532C693.975 1108.3 695.207 1107.11 695.242 1105.66L695.946 1084.46C695.981 1083.8 695.735 1083.16 695.277 1082.67C694.82 1082.18 694.186 1081.93 693.518 1081.93H645.229Z" fill="#353535"/>
<g opacity="0.29">
<path d="M697.495 1044.07C698.234 1042.76 697.812 1041.15 696.544 1040.44L656.562 1018.26C655.295 1017.55 653.641 1018.01 652.902 1019.31C652.163 1020.61 652.585 1022.23 653.852 1022.93L693.834 1045.12C695.101 1045.82 696.756 1045.33 697.495 1044.07Z" fill="#ABD661"/>
</g>
<path d="M185.505 1131.12H171.708C167.907 1131.12 164.704 1134.21 164.563 1138.01L163.965 1155.59C163.824 1159.39 166.851 1162.48 170.617 1162.48H184.801C186.948 1162.48 188.742 1160.72 188.813 1158.58L189.587 1135.41C189.728 1133.05 187.863 1131.12 185.505 1131.12Z" fill="#3D3D3D"/>
<path opacity="0.7" d="M224.536 1079.12H401.148C402.732 1079.12 404.069 1077.82 404.104 1076.27C404.14 1074.69 402.908 1073.42 401.324 1073.42H224.748C223.164 1073.42 221.826 1074.72 221.791 1076.27C221.721 1077.82 222.988 1079.12 224.536 1079.12Z" fill="#89C147"/>
<path opacity="0.7" d="M230.027 915.802H406.638C408.222 915.802 409.56 914.502 409.595 912.955C409.63 911.372 408.398 910.107 406.814 910.107H230.203C228.619 910.107 227.282 911.408 227.246 912.955C227.211 914.537 228.443 915.802 230.027 915.802Z" fill="#89C147"/>
<path d="M588.072 1086.61H580.188C577.337 1086.61 575.014 1084.29 575.014 1081.44V1078.17C575.014 1075.32 577.337 1073 580.188 1073H588.072C590.922 1073 593.245 1075.32 593.245 1078.17V1081.44C593.245 1084.29 590.922 1086.61 588.072 1086.61Z" fill="#3D3D3D"/>
<path d="M586.136 1086.61H577.865C575.12 1086.61 572.902 1084.36 572.902 1081.65V1078.03C572.902 1075.29 575.155 1073.07 577.865 1073.07H586.136C588.881 1073.07 591.098 1075.32 591.098 1078.03V1081.65C591.098 1084.36 588.881 1086.61 586.136 1086.61Z" fill="#474747"/>
<path d="M584.271 1083.83H579.73C578.006 1083.83 576.598 1082.42 576.598 1080.7V1078.91C576.598 1077.19 578.006 1075.78 579.73 1075.78H584.271C585.995 1075.78 587.403 1077.19 587.403 1078.91V1080.7C587.403 1082.42 585.995 1083.83 584.271 1083.83Z" fill="#EA5615"/>
<path d="M503.356 1156.54H338.007C335.754 1156.54 333.924 1154.71 333.924 1152.46C333.924 1150.21 335.754 1148.38 338.007 1148.38H503.391C505.644 1148.38 507.474 1150.21 507.474 1152.46C507.474 1154.68 505.608 1156.54 503.356 1156.54Z" fill="#2B2B2B"/>
<path d="M483.998 1156.54H336.916C334.663 1156.54 332.833 1154.71 332.833 1152.46C332.833 1150.21 334.663 1148.38 336.916 1148.38H483.998C486.251 1148.38 488.081 1150.21 488.081 1152.46C488.116 1154.68 486.251 1156.54 483.998 1156.54Z" fill="#3F3F3F"/>
<path d="M240.015 1007.45C244.821 1013.62 251.415 1019.11 256.313 1024.15C264.407 1015.26 277.75 1004.47 277.75 991.979C277.75 979.729 267.888 969.795 255.72 969.795C250.206 969.795 245.16 971.84 241.294 975.213H235.456C233.816 975.213 232.476 976.564 232.476 978.21C232.476 979.862 233.817 981.208 235.456 981.208H244.75C247.534 978.334 251.42 976.551 255.72 976.551C256.357 976.551 256.982 976.59 257.597 976.666C265.172 977.595 271.042 984.098 271.042 991.979C271.042 1000.05 264.886 1006.67 257.043 1007.35C256.607 1007.38 256.168 1007.41 255.72 1007.41C250.809 1007.41 246.434 1005.08 243.634 1001.46H226.747C225.107 1001.46 223.766 1002.81 223.766 1004.45C223.766 1006.11 225.108 1007.45 226.747 1007.45H240.015V1007.45ZM224.698 983.722C223.058 983.722 221.717 985.073 221.717 986.724C221.717 988.371 223.059 989.722 224.698 989.722H240.565C240.882 987.544 241.65 985.507 242.776 983.723H224.698V983.722ZM241.919 998.685L240.415 992.687H219.317C217.681 992.687 216.34 994.037 216.34 995.684C216.34 997.335 217.681 998.686 219.317 998.686H241.919V998.685Z" fill="white"/>
<path d="M256.687 989.592L261.369 986.869L265.704 984.35L261.369 981.827L255.878 978.635L250.386 981.827L246.052 984.35L250.386 986.869L255.074 989.592L255.878 990.061L256.687 989.592ZM261.369 988.782L256.687 991.504V1003.7L261.369 1000.97L266.856 997.786V991.402V985.594L261.369 988.782ZM255.074 991.504L250.386 988.782L244.9 985.594V991.402V997.786L250.386 1000.97L255.074 1003.7V991.504Z" fill="white"/>
<path d="M303.041 990.309H291.258V1004.67H294.762V999.375H302.229V996.461H294.762V993.381H303.041V990.309ZM322.305 1004.67L316.007 990.309H312.073L305.746 1004.67H309.463L310.502 1002.02H317.367L318.412 1004.67H322.305ZM313.924 993.36L316.328 999.395H311.54L313.924 993.36ZM326.521 1001.59C326.521 1003.72 327.477 1004.67 329.581 1004.67H337.526C339.63 1004.67 340.587 1003.72 340.587 1001.59V999.25C340.587 997.175 339.672 996.357 337.526 996.171L331.371 995.594C330.496 995.518 330.23 995.291 330.23 994.446V994.185C330.23 993.339 330.538 993.031 331.371 993.031H335.777C336.611 993.031 336.918 993.341 336.918 994.185V994.488H340.299V993.381C340.299 991.25 339.342 990.309 337.245 990.309H329.778C327.681 990.309 326.724 991.25 326.724 993.381V995.354C326.724 997.423 327.639 998.24 329.778 998.426L335.94 999.004C336.815 999.086 337.081 999.313 337.081 1000.15V1000.78C337.081 1001.63 336.773 1001.94 335.94 1001.94H331.042C330.21 1001.94 329.902 1001.63 329.902 1000.78V1000.23H326.521V1001.59ZM345.436 990.309V993.422H350.368V1004.67H353.873V993.422H358.806V990.309H345.436ZM382.127 997.195C383.042 996.831 383.493 995.965 383.493 994.61V993.38C383.493 991.249 382.537 990.308 380.432 990.308H370.24V1004.67H380.843C382.94 1004.67 383.897 1003.72 383.897 1001.59V999.924C383.896 998.384 383.308 997.484 382.127 997.195ZM378.841 993.01C379.68 993.01 379.981 993.32 379.981 994.165V994.941C379.981 995.821 379.722 996.088 378.841 996.088H373.744V993.009H378.841V993.01ZM380.392 1000.8C380.392 1001.65 380.084 1001.96 379.251 1001.96H373.745V998.446H379.251C380.126 998.446 380.392 998.756 380.392 999.594V1000.8ZM400.12 1004.67C402.812 1004.67 404.075 1003.41 404.075 1000.69V994.282C404.075 991.56 402.812 990.31 400.12 990.31H393.556C390.871 990.31 389.608 991.561 389.608 994.282V1000.69C389.608 1003.41 390.872 1004.67 393.556 1004.67H400.12V1004.67ZM394.785 1001.67C393.556 1001.67 393.112 1001.22 393.112 999.986V994.983C393.112 993.753 393.556 993.299 394.785 993.299H398.898C400.141 993.299 400.571 993.753 400.571 994.983V999.986C400.571 1001.22 400.141 1001.67 398.898 1001.67H394.785ZM412.068 1004.67L415.799 999.491L419.467 1004.67H423.648L418.182 997.36L423.442 990.309H419.466L416.003 995.21L412.532 990.309H408.352L413.612 997.36L408.154 1004.67H412.068Z" fill="white"/>
</g>
<path d="M1679.59 51.0938L1672.34 71.0313C1672.17 71.5097 1671.85 71.9224 1671.43 72.2137C1671.01 72.5051 1670.51 72.6613 1670 72.6613C1669.49 72.6613 1668.99 72.5051 1668.57 72.2137C1668.15 71.9224 1667.83 71.5097 1667.66 71.0313L1660.41 51.0938C1660.28 50.7501 1660.08 50.438 1659.82 50.1791C1659.56 49.9201 1659.25 49.7204 1658.91 49.5938L1638.97 42.3438C1638.49 42.1662 1638.08 41.8464 1637.79 41.4275C1637.49 41.0085 1637.34 40.5104 1637.34 40C1637.34 39.4897 1637.49 38.9916 1637.79 38.5726C1638.08 38.1536 1638.49 37.8339 1638.97 37.6563L1658.91 30.4063C1659.25 30.2797 1659.56 30.08 1659.82 29.821C1660.08 29.562 1660.28 29.2499 1660.41 28.9063L1667.66 8.96878C1667.83 8.49034 1668.15 8.07771 1668.57 7.78632C1668.99 7.49493 1669.49 7.33875 1670 7.33875C1670.51 7.33875 1671.01 7.49493 1671.43 7.78632C1671.85 8.07771 1672.17 8.49034 1672.34 8.96878L1679.59 28.9063C1679.72 29.2499 1679.92 29.562 1680.18 29.821C1680.44 30.08 1680.75 30.2797 1681.09 30.4063L1701.03 37.6563C1701.51 37.8339 1701.92 38.1536 1702.21 38.5726C1702.51 38.9916 1702.66 39.4897 1702.66 40C1702.66 40.5104 1702.51 41.0085 1702.21 41.4275C1701.92 41.8464 1701.51 42.1662 1701.03 42.3438L1681.09 49.5938C1680.75 49.7204 1680.44 49.9201 1680.18 50.1791C1679.92 50.438 1679.72 50.7501 1679.59 51.0938V51.0938Z" stroke="#6FCF97" stroke-width="3.5" stroke-linecap="round" stroke-linejoin="round"/>
<defs>
<clipPath id="clip0_150_70">
<rect width="664" height="360" fill="white" transform="translate(164 858)"/>
</clipPath>
</defs>
</svg>
