<svg width="115" height="115" viewBox="0 0 115 115" fill="none" xmlns="http://www.w3.org/2000/svg">
<rect width="115" height="115" rx="25" fill="#3CBD96"/>
<g clip-path="url(#clip0_150_69)">
<path d="M75.6667 34.6667H73.3333V32.3333C73.3333 31.7145 73.0875 31.121 72.6499 30.6834C72.2123 30.2458 71.6188 30 71 30C70.3812 30 69.7877 30.2458 69.3501 30.6834C68.9125 31.121 68.6667 31.7145 68.6667 32.3333V34.6667H45.3333V32.3333C45.3333 31.7145 45.0875 31.121 44.6499 30.6834C44.2123 30.2458 43.6188 30 43 30C42.3812 30 41.7877 30.2458 41.3501 30.6834C40.9125 31.121 40.6667 31.7145 40.6667 32.3333V34.6667H38.3333C35.858 34.6667 33.484 35.65 31.7337 37.4003C29.9833 39.1507 29 41.5246 29 44L29 76.6667C29 79.142 29.9833 81.516 31.7337 83.2663C33.484 85.0167 35.858 86 38.3333 86H75.6667C78.142 86 80.516 85.0167 82.2663 83.2663C84.0167 81.516 85 79.142 85 76.6667V44C85 41.5246 84.0167 39.1507 82.2663 37.4003C80.516 35.65 78.142 34.6667 75.6667 34.6667ZM80.3333 76.6667C80.3333 77.9043 79.8417 79.0913 78.9665 79.9665C78.0913 80.8417 76.9043 81.3333 75.6667 81.3333H38.3333C37.0957 81.3333 35.9087 80.8417 35.0335 79.9665C34.1583 79.0913 33.6667 77.9043 33.6667 76.6667V44C33.6667 42.7623 34.1583 41.5753 35.0335 40.7002C35.9087 39.825 37.0957 39.3333 38.3333 39.3333H40.6667V41.6667C40.6667 42.2855 40.9125 42.879 41.3501 43.3166C41.7877 43.7542 42.3812 44 43 44C43.6188 44 44.2123 43.7542 44.6499 43.3166C45.0875 42.879 45.3333 42.2855 45.3333 41.6667V39.3333H68.6667V41.6667C68.6667 42.2855 68.9125 42.879 69.3501 43.3166C69.7877 43.7542 70.3812 44 71 44C71.6188 44 72.2123 43.7542 72.6499 43.3166C73.0875 42.879 73.3333 42.2855 73.3333 41.6667V39.3333H75.6667C76.9043 39.3333 78.0913 39.825 78.9665 40.7002C79.8417 41.5753 80.3333 42.7623 80.3333 44V76.6667Z" fill="white"/>
<path d="M73.3333 46.3334H40.6666C40.0478 46.3334 39.4543 46.5792 39.0167 47.0168C38.5791 47.4544 38.3333 48.0479 38.3333 48.6667C38.3333 49.2855 38.5791 49.879 39.0167 50.3166C39.4543 50.7542 40.0478 51 40.6666 51H73.3333C73.9522 51 74.5456 50.7542 74.9832 50.3166C75.4208 49.879 75.6666 49.2855 75.6666 48.6667C75.6666 48.0479 75.4208 47.4544 74.9832 47.0168C74.5456 46.5792 73.9522 46.3334 73.3333 46.3334Z" fill="white"/>
<path d="M45.3333 58H40.6666C40.0478 58 39.4543 58.2458 39.0167 58.6834C38.5791 59.121 38.3333 59.7145 38.3333 60.3333C38.3333 60.9522 38.5791 61.5457 39.0167 61.9832C39.4543 62.4208 40.0478 62.6667 40.6666 62.6667H45.3333C45.9522 62.6667 46.5456 62.4208 46.9832 61.9832C47.4208 61.5457 47.6666 60.9522 47.6666 60.3333C47.6666 59.7145 47.4208 59.121 46.9832 58.6834C46.5456 58.2458 45.9522 58 45.3333 58Z" fill="white"/>
<path d="M45.3333 69.6666H40.6666C40.0478 69.6666 39.4543 69.9125 39.0167 70.35C38.5791 70.7876 38.3333 71.3811 38.3333 72C38.3333 72.6188 38.5791 73.2123 39.0167 73.6499C39.4543 74.0875 40.0478 74.3333 40.6666 74.3333H45.3333C45.9522 74.3333 46.5456 74.0875 46.9832 73.6499C47.4208 73.2123 47.6666 72.6188 47.6666 72C47.6666 71.3811 47.4208 70.7876 46.9832 70.35C46.5456 69.9125 45.9522 69.6666 45.3333 69.6666Z" fill="white"/>
<path d="M59.3333 58H54.6666C54.0478 58 53.4543 58.2458 53.0167 58.6834C52.5791 59.121 52.3333 59.7145 52.3333 60.3333C52.3333 60.9522 52.5791 61.5457 53.0167 61.9832C53.4543 62.4208 54.0478 62.6667 54.6666 62.6667H59.3333C59.9522 62.6667 60.5456 62.4208 60.9832 61.9832C61.4208 61.5457 61.6666 60.9522 61.6666 60.3333C61.6666 59.7145 61.4208 59.121 60.9832 58.6834C60.5456 58.2458 59.9522 58 59.3333 58Z" fill="white"/>
<path d="M59.3333 69.6666H54.6666C54.0478 69.6666 53.4543 69.9125 53.0167 70.35C52.5791 70.7876 52.3333 71.3811 52.3333 72C52.3333 72.6188 52.5791 73.2123 53.0167 73.6499C53.4543 74.0875 54.0478 74.3333 54.6666 74.3333H59.3333C59.9522 74.3333 60.5456 74.0875 60.9832 73.6499C61.4208 73.2123 61.6666 72.6188 61.6666 72C61.6666 71.3811 61.4208 70.7876 60.9832 70.35C60.5456 69.9125 59.9522 69.6666 59.3333 69.6666Z" fill="white"/>
<path d="M73.3333 58H68.6666C68.0478 58 67.4543 58.2458 67.0167 58.6834C66.5791 59.121 66.3333 59.7145 66.3333 60.3333C66.3333 60.9522 66.5791 61.5457 67.0167 61.9832C67.4543 62.4208 68.0478 62.6667 68.6666 62.6667H73.3333C73.9522 62.6667 74.5456 62.4208 74.9832 61.9832C75.4208 61.5457 75.6666 60.9522 75.6666 60.3333C75.6666 59.7145 75.4208 59.121 74.9832 58.6834C74.5456 58.2458 73.9522 58 73.3333 58Z" fill="white"/>
<path d="M73.3333 69.6666H68.6666C68.0478 69.6666 67.4543 69.9125 67.0167 70.35C66.5791 70.7876 66.3333 71.3811 66.3333 72C66.3333 72.6188 66.5791 73.2123 67.0167 73.6499C67.4543 74.0875 68.0478 74.3333 68.6666 74.3333H73.3333C73.9522 74.3333 74.5456 74.0875 74.9832 73.6499C75.4208 73.2123 75.6666 72.6188 75.6666 72C75.6666 71.3811 75.4208 70.7876 74.9832 70.35C74.5456 69.9125 73.9522 69.6666 73.3333 69.6666Z" fill="white"/>
</g>
<defs>
<clipPath id="clip0_150_69">
<rect width="56" height="56" fill="white" transform="translate(29 30)"/>
</clipPath>
</defs>
</svg>
