<svg width="38" height="38" viewBox="0 0 38 38" fill="none" xmlns="http://www.w3.org/2000/svg">
<path d="M28.975 9.52233H26.125V7.125H23.75V9.52233H14.25V7.125H11.875V9.52233H9.06347C8.0142 9.52233 7.16348 10.3731 7.16348 11.4223V28.975C7.16348 30.0243 8.0142 30.875 9.06347 30.875H28.975C30.0243 30.875 30.875 30.0243 30.875 28.975V11.4223C30.875 10.3731 30.0243 9.52233 28.975 9.52233ZM28.5 28.5H9.5V16.625H28.5V28.5ZM28.5 14.25H9.5V11.875H28.5V14.25Z" fill="white"/>
<path d="M20.425 19H18.05V21.375H20.425V19Z" fill="white"/>
<path d="M25.175 19H22.8V21.375H25.175V19Z" fill="white"/>
<path d="M20.425 23.75H18.05V26.125H20.425V23.75Z" fill="white"/>
<path d="M15.675 23.75H13.3V26.125H15.675V23.75Z" fill="white"/>
</svg>
