<svg width="115" height="115" viewBox="0 0 115 115" fill="none" xmlns="http://www.w3.org/2000/svg">
<rect width="115" height="115" rx="25" fill="#3CBD96"/>
<path d="M62.128 86.0304C61.7215 86.0301 61.3233 85.9156 60.9788 85.6999C60.6343 85.4842 60.3574 85.1761 60.1797 84.8105L49.9902 63.8636L29.0433 53.6756C28.666 53.4917 28.3501 53.2022 28.1342 52.8422C27.9182 52.4822 27.8114 52.0673 27.8267 51.6478C27.842 51.2283 27.9788 50.8223 28.2204 50.479C28.462 50.1357 28.7981 49.87 29.1878 49.714L82.9405 28.0936C83.3349 27.9346 83.7673 27.8951 84.184 27.9801C84.6007 28.0651 84.9832 28.2707 85.2839 28.5714C85.5846 28.8721 85.7902 29.2546 85.8752 29.6713C85.9602 30.088 85.9207 30.5204 85.7617 30.9148L64.1398 84.6718C63.9831 85.0612 63.7166 85.3968 63.3728 85.6377C63.029 85.8786 62.6227 86.0145 62.2031 86.0289L62.128 86.0304ZM35.3348 51.921L52.56 60.3038C52.9966 60.5161 53.3493 60.8688 53.5616 61.3054L61.9444 78.5307L79.8359 34.0078L35.3348 51.921Z" fill="white"/>
<path d="M51.6118 64.41C51.183 64.4099 50.7639 64.2827 50.4074 64.0444C50.0509 63.806 49.7731 63.4674 49.6091 63.0712C49.4452 62.675 49.4023 62.239 49.4861 61.8185C49.5699 61.3979 49.7765 61.0117 50.0798 60.7086L82.2163 28.5721C82.4177 28.3708 82.6568 28.2111 82.9198 28.1022C83.1829 27.9933 83.4649 27.9373 83.7496 27.9374C84.0343 27.9374 84.3162 27.9936 84.5793 28.1026C84.8423 28.2116 85.0813 28.3714 85.2826 28.5728C85.4838 28.7742 85.6435 29.0132 85.7524 29.2763C85.8613 29.5394 85.9173 29.8213 85.9172 30.106C85.9172 30.3908 85.861 30.6727 85.752 30.9357C85.643 31.1987 85.4832 31.4377 85.2818 31.639L53.1453 63.7813C52.7376 64.1857 52.1861 64.4118 51.6118 64.41Z" fill="white"/>
</svg>
