<svg width="172" height="42" viewBox="0 0 172 42" fill="none" xmlns="http://www.w3.org/2000/svg">
<path fill-rule="evenodd" clip-rule="evenodd" d="M170.159 29.0383C169.629 28.6625 169.208 28.6094 168.862 29.3273C162.925 41.9796 152.883 35.6834 153.889 36.2377C156.117 35.2299 161.957 30.6296 161.07 24.2648C160.533 20.3742 157.132 18.6581 153.515 19.2916C147.212 20.3778 144.92 27.0525 146.099 32.9506C146.302 33.9725 146.669 34.7968 147.054 35.6211C139.955 41.3173 137.105 30.5621 136.774 29.2715C136.756 29.1997 142.267 24.6896 143.785 13.9453C145.375 2.69877 141.716 0.642369 137.971 0.720143C131.045 0.856844 129.204 15.0448 131.726 26.8586C131.526 26.9127 130.54 27.4523 128.968 27.5087C127.83 24.0136 122.982 20.9549 121.723 22.1404C118.567 25.1045 122.505 30.8726 125.283 31.3164C123.637 41.3795 113.217 38.9036 115.133 26.2936C118.504 20.1192 121.084 10.9154 120.6 5.37486C120.432 3.42045 118.948 0.786692 115.604 0.917616C109.172 1.17905 108.501 15.3651 109.266 25.4423C109.229 25.1913 108.866 26.6624 106.236 27.4019C105.609 24.0136 100.03 20.5973 98.7174 22.2493C96.2738 25.3198 100.54 30.7825 102.551 31.1558C100.904 41.2189 90.4844 38.743 92.401 26.133C95.7901 19.9586 98.3517 10.7727 97.8858 5.23221C97.7184 3.27776 96.234 0.643998 92.8898 0.774923C86.458 1.03636 85.7865 15.2224 86.5523 25.2996C86.5151 25.0486 86.152 26.5735 83.4121 27.2952C83.3139 22.8839 77.7191 20.8844 76.369 22.2853C73.9791 24.7998 76.9295 29.9418 79.6542 31.1928C78.0076 41.2558 67.5879 38.7799 69.5044 26.1699C72.8751 19.9955 75.4551 10.7918 74.9712 5.25121C74.8218 3.31469 73.3374 0.680929 69.9932 0.811854C63.5614 1.07329 63.0741 15.9764 63.8394 26.0535C61.734 34.9696 54.6438 46.0996 55.5395 23.8074C55.6285 22.247 55.719 21.6551 54.9322 21.0646C54.3286 20.6173 52.9766 20.8346 52.2455 20.8537C51.3502 20.8911 51.1138 21.4115 50.932 22.1829C50.4786 24.1921 50.3903 26.147 50.3215 28.8191C50.2872 30.0745 50.1782 30.6485 49.6876 32.3529C49.1969 34.0574 46.4245 37.1643 44.8887 36.6467C42.7677 35.9328 43.4526 30.0676 43.848 26.032C44.1721 22.8394 43.1099 21.4244 40.4045 20.9087C38.8142 20.5885 37.8459 20.6438 36.2004 20.1264C34.6281 19.6448 34.2762 16.7402 30.952 17.7139C29.1256 18.2549 30.3012 22.0369 29.8671 24.853C27.7332 38.6828 23.2568 39.0666 21.1628 32.3631C30.4825 9.82416 23.7984 0.958097 19.9061 0.964375C15.8494 0.970918 11.2124 3.72215 13.196 21.2933C12.2453 21.0258 11.9527 20.8829 10.8929 20.8846C4.99055 20.8762 0.959701 25.5811 0.969044 31.3735C0.978386 37.1658 5.02439 41.8577 10.945 41.8482C14.4352 41.8426 16.8813 40.2784 18.7413 37.8724C19.9501 39.5741 21.434 41.8671 24.1382 41.7552C32.1781 41.4374 34.4909 25.2401 34.7636 24.3251C35.6226 24.4492 36.4453 24.699 37.2313 24.8232C38.5473 25.0184 38.6578 25.5382 38.6233 26.8295C38.2939 37.8409 40.365 41.6932 45.0615 41.6856C47.6743 41.6814 50.0094 39.149 51.6145 37.3531C52.8246 39.7901 54.7276 41.5982 57.3046 41.6658C63.5177 41.7993 65.8959 32.0757 65.6786 33.3493C65.5156 34.3538 67.7018 41.5773 74.1161 41.6028C82.0465 41.6259 83.5129 33.0695 83.6752 31.6346C83.7112 31.3835 83.6931 31.3476 83.6752 31.6346C83.6753 31.6525 83.6753 31.6884 83.6754 31.7242C86.1964 31.2539 87.4915 29.9427 87.4915 29.9427C87.4915 29.9427 89.5388 41.7214 97.0127 41.5839C104.779 41.4278 106.246 33.6963 106.427 32.1897C106.462 31.8668 106.444 31.831 106.427 32.1897C106.427 32.2076 106.427 32.2255 106.427 32.2255C109.422 31.1447 110.206 30.0854 110.206 30.0854C110.206 30.0854 111.832 41.6317 119.727 41.7265C126.762 41.805 129.364 34.7171 129.377 31.7581C130.565 31.7741 132.757 31.0533 132.702 31.0175C132.702 31.0175 135.295 41.1097 142.495 41.6181C145.876 41.8636 148.413 39.7435 149.855 38.7728C153.258 41.4752 164.575 44.9002 171.701 32.999C172.721 31.3117 170.543 29.2887 170.159 29.0383ZM10.6462 37.9214C7.1926 37.9269 4.97645 34.7922 4.97101 31.4208C4.96557 28.0494 6.98887 24.9078 10.4426 24.9023C11.9958 24.8998 12.8549 25.0598 14.0809 26.098C14.3015 26.9404 14.926 28.8941 15.2381 29.7903C15.642 30.9732 16.137 31.9946 16.6139 33.0877C15.9058 35.9223 13.6431 37.9165 10.6462 37.9214ZM19.0331 26.1796C18.8866 25.9467 18.9233 26.0901 18.7585 25.8752C18.1345 24.1905 16.9041 20.4265 16.751 16.1408C16.5787 11.2992 17.3919 5.61308 19.8222 5.60916C21.4669 5.60651 23.2397 17.1167 19.0331 26.1796ZM67.6504 21.062C67.2622 18.1934 67.2231 5.37133 70.3487 5.72492C72.0857 6.40358 69.2727 18.495 67.6504 21.062ZM90.547 21.0251C90.1588 18.1565 90.1197 5.3344 93.2453 5.68799C94.9823 6.36665 92.1692 18.458 90.547 21.0251ZM113.261 21.1678C112.873 18.2991 112.834 5.47706 115.959 5.83068C117.696 6.49143 114.884 18.6007 113.261 21.1678ZM138.306 4.84422C141.175 4.55264 141.067 16.837 135.341 24.5932C134.587 21.7969 133.429 5.82046 138.306 4.84422ZM150.409 31.2759C149.488 26.7045 151.859 23.7058 154.307 23.3791C155.166 23.2522 156.409 23.7881 156.648 24.81C157.054 26.7281 156.601 29.5802 151.107 33.1936C151.125 33.2115 150.612 32.2798 150.409 31.2759ZM53.1903 17.3373C55.1455 17.3342 56.7327 15.7714 56.7296 13.8526C56.7265 11.9338 55.1343 10.3762 53.1791 10.3793C51.2238 10.3825 49.6363 11.9452 49.6394 13.8641C49.6425 15.7829 51.2351 17.3405 53.1903 17.3373Z" fill="#444444"/>
</svg>
