<svg width="190" height="42" viewBox="0 0 190 42" fill="none" xmlns="http://www.w3.org/2000/svg">
<g clip-path="url(#clip0_1_6704)">
<path d="M77.3371 16.0495L83.532 16.0395C82.488 9.46493 76.778 4.89354 69.3567 4.90551C60.5757 4.91967 53.9969 11.3762 54.0143 22.172C54.0314 32.7749 60.3348 39.341 69.5917 39.3261C77.8995 39.3127 83.8383 33.9676 83.8243 25.3306L83.8179 21.3066L70.2017 21.3286L70.2094 26.0721L77.9434 26.0596C77.8532 30.8385 74.6628 33.8684 69.6155 33.8765C63.9972 33.8856 60.1397 29.6886 60.1275 22.097C60.1153 14.5541 64.0245 10.3609 69.447 10.3521C73.4935 10.3456 76.2654 12.4997 77.3371 16.0495Z" fill="#171321"/>
<path d="M87.9416 38.8375L93.8726 38.828L93.8321 13.7121L87.9011 13.7217L87.9416 38.8375ZM90.886 9.7255C92.7705 9.72246 94.3074 8.2782 94.3046 6.5133C94.3017 4.7484 92.7602 3.2928 90.8756 3.29584C88.9911 3.29888 87.4379 4.74046 87.4407 6.52437C87.4436 8.30827 88.9742 9.72859 90.8751 9.72552L90.886 9.7255Z" fill="#171321"/>
<path d="M111.593 13.6836L106.627 13.6916L106.617 7.65838L100.686 7.66795L100.696 13.7012L97.1253 13.7069L97.1327 18.2875L100.703 18.2818L100.726 32.2543C100.701 36.9815 104.147 39.3083 108.602 39.1627C109.788 39.1374 110.964 38.9368 112.092 38.5678L111.084 33.9373C110.518 34.0851 109.935 34.1637 109.35 34.1709C107.857 34.1733 106.659 33.6512 106.655 31.2618L106.634 18.2586L111.6 18.2506L111.593 13.6836Z" fill="#171321"/>
<path d="M116.224 38.792L137.082 38.7584L137.073 33.67L122.296 33.6939L122.25 5.27633L116.169 5.28613L116.224 38.792Z" fill="#171321"/>
<path d="M148.444 39.2478C152.393 39.2414 154.747 37.3885 155.826 35.2771L156.022 35.2768L156.028 38.7278L161.738 38.7186L161.711 21.9005C161.701 15.259 156.275 13.2721 151.472 13.2798C146.18 13.2884 142.121 15.649 140.818 20.2317L146.359 21.0102C146.943 19.2905 148.613 17.8162 151.521 17.8115C154.275 17.807 155.784 19.2111 155.788 21.682L155.788 21.7797C155.791 23.4794 154.004 23.5665 149.564 24.0461C144.684 24.578 140.017 26.0409 140.026 31.7022C140.018 36.6439 143.642 39.2555 148.444 39.2478ZM150.387 34.9003C147.912 34.9043 146.14 33.7776 146.137 31.6027C146.133 29.3273 148.114 28.3765 150.754 27.9948C152.312 27.7805 155.425 27.3818 156.191 26.7615L156.195 29.7211C156.216 32.5096 153.957 34.8864 150.387 34.8921L150.387 34.9003Z" fill="#171321"/>
<path d="M166.106 38.7115L171.939 38.702L171.933 34.7432L172.275 34.7427C173.214 36.574 175.168 39.1394 179.494 39.1324C185.425 39.1229 189.859 34.4184 189.845 26.1424C189.832 17.7659 185.253 13.2253 179.436 13.2347C174.995 13.2418 173.148 15.9112 172.248 17.7291L171.998 17.7295L171.977 5.19601L166.052 5.20557L166.106 38.7115ZM171.902 26.1387C171.895 21.2513 173.986 18.101 177.804 18.0948C181.753 18.0885 183.792 21.4385 183.8 26.1195C183.808 30.8006 181.749 34.2685 177.83 34.2749C174.045 34.281 171.91 31.0125 171.902 26.1387Z" fill="#171321"/>
<path d="M42.8235 16.8817L42.7661 16.7298L36.9767 1.72387C36.8596 1.42923 36.6514 1.17946 36.3828 1.01072C36.1821 0.882984 35.9544 0.803939 35.7178 0.779918C35.4811 0.755896 35.2422 0.787569 35.0198 0.872395C34.7978 0.957225 34.5984 1.09285 34.4382 1.26839C34.2781 1.44394 34.1612 1.65453 34.0971 1.88328L30.2248 13.785L14.4658 13.8104L10.5551 1.92125C10.4898 1.69305 10.372 1.48324 10.2111 1.30854C10.0503 1.13385 9.85071 0.999111 9.62839 0.915069C9.40611 0.831028 9.16724 0.80001 8.9308 0.82449C8.69438 0.848972 8.46695 0.928271 8.26665 1.05607C7.99843 1.22568 7.79118 1.47611 7.67497 1.77113L1.93675 16.7984L1.87716 16.9478C1.05103 19.114 0.952655 21.4896 1.59687 23.7166C2.24108 25.9435 3.59296 27.9009 5.44867 29.2936L5.47045 29.3098L5.51943 29.3478L14.3001 35.8963L18.6565 39.172L21.303 41.1634C21.6135 41.397 21.9918 41.5229 22.3805 41.5223C22.7692 41.5217 23.147 41.3945 23.4568 41.16L26.0969 39.16L30.4427 35.8703L39.2647 29.2553L39.2891 29.2363C41.1402 27.8382 42.4858 25.877 43.1235 23.6485C43.7609 21.4201 43.6556 19.0452 42.8235 16.8817Z" fill="#E24329"/>
<path d="M42.8235 16.8817L42.7661 16.7298C39.9582 17.3098 37.3133 18.5028 35.0214 20.2232L22.3779 29.8012L30.4481 35.8703L39.2701 29.2553L39.2946 29.2363C41.1448 27.8374 42.4894 25.8759 43.1259 23.6476C43.7622 21.4192 43.6561 19.0446 42.8235 16.8817Z" fill="#FC6D26"/>
<path d="M14.3002 35.8963L18.6565 39.172L21.303 41.1634C21.6135 41.397 21.9918 41.5229 22.3805 41.5223C22.7692 41.5217 23.147 41.3945 23.4568 41.16L26.0969 39.16L30.4426 35.8703L22.3725 29.8012L14.3002 35.8963Z" fill="#FCA326"/>
<path d="M9.68997 20.264C7.39327 18.5519 4.74557 17.3684 1.93674 16.7983L1.87716 16.9478C1.05103 19.114 0.95265 21.4896 1.59686 23.7165C2.24107 25.9434 3.59295 27.9009 5.44866 29.2935L5.47044 29.3098L5.51943 29.3477L14.3001 35.8963L22.3562 29.8012L9.68997 20.264Z" fill="#FC6D26"/>
</g>
<defs>
<clipPath id="clip0_1_6704">
<rect width="189" height="41" fill="white" transform="translate(0.917969 0.557373) rotate(-0.0924153)"/>
</clipPath>
</defs>
</svg>
