<svg width="185" height="43" viewBox="0 0 185 43" fill="none" xmlns="http://www.w3.org/2000/svg">
<g clip-path="url(#clip0_1_6706)">
<path d="M32.4768 8.02312C25.4544 7.53247 17.6334 7.54509 10.6125 8.05838C9.14286 8.16584 8.03098 9.28781 7.92268 10.6572C7.57533 15.0488 7.53879 21.6274 7.87086 26.0135C7.98055 27.4623 9.26068 28.7039 10.9898 28.7011L16.4104 28.6923L16.4211 35.3476L11.0116 35.3525C6.0491 35.3605 1.58889 31.7068 1.19575 26.5142C0.837833 21.7869 0.875052 14.8661 1.24929 10.1344C1.62434 5.39246 5.44916 1.75545 10.1222 1.41379C17.4624 0.877149 25.6039 0.864015 32.9457 1.37698C37.6198 1.70355 41.4564 5.32821 41.8468 10.069C42.2363 14.7993 42.2307 21.7202 41.888 26.4486C41.5117 31.6424 37.0736 35.3253 32.1111 35.3333L26.7575 35.3381L16.4318 42.0101L16.4211 35.3476L26.7468 28.6757L32.1011 28.667C33.8302 28.6642 35.1063 27.4185 35.2113 25.9694C35.5293 21.5823 35.5365 15.0037 35.175 10.6132C35.0623 9.24421 33.9469 8.12583 32.4768 8.02312Z" fill="#FE5000"/>
<path d="M52.4053 30.2047L68.5822 30.1786L68.5757 26.136L57.3009 26.1542L57.268 5.80191L52.366 5.80981L52.4053 30.2047Z" fill="#1B1B20"/>
<path d="M70.9268 30.1751L75.6888 30.1674L75.6596 12.0455L70.8976 12.0532L70.9268 30.1751ZM70.5048 7.31418C70.5073 8.88243 71.6647 10.0655 73.2754 10.0629C74.8861 10.0603 76.0397 8.87351 76.0371 7.30526C76.0346 5.73701 74.8772 4.55398 73.2665 4.55657C71.6558 4.55917 70.5022 5.74593 70.5048 7.31418Z" fill="#1B1B20"/>
<path d="M94.3315 12.0152L89.5694 12.0229L85.6692 25.307L81.7261 12.0355L76.9641 12.0432L83.1909 30.1551L88.1631 30.1471L94.3315 12.0152Z" fill="#1B1B20"/>
<path d="M102.859 30.5415C106.886 30.535 110.138 28.1251 110.763 24.8134L106.596 24.8201C106.143 26.0754 104.884 27.123 102.853 27.1262C100.087 27.1307 98.9989 25.2854 98.9954 23.1596L98.9947 22.7065L110.9 22.6873L110.895 19.516C110.888 15.1597 108.151 11.5745 102.758 11.5832C97.2961 11.5921 94.3604 15.0818 94.3683 19.9957L94.3723 22.47C94.3805 27.5581 97.7118 30.5498 102.859 30.5415ZM98.989 19.1867C98.9851 16.7472 100.033 14.9333 102.764 14.9289C105.32 14.9247 106.513 16.6305 106.517 18.8957L106.517 19.3488L98.9893 19.3609L98.989 19.1867Z" fill="#1B1B20"/>
<path d="M123.569 30.578C129.766 30.568 133.576 26.3798 133.813 21.3959L129.261 21.4032C128.951 24.1569 127.204 26.5643 123.562 26.5702C119.465 26.5768 117.71 23.7916 117.704 19.8885L117.698 15.9156C117.691 12.0124 119.437 9.22156 123.534 9.21495C127.176 9.20908 128.93 11.6109 129.25 14.3635L133.802 14.3562C133.549 9.37305 129.725 5.19721 123.528 5.20721C116.14 5.21912 112.821 9.92923 112.831 16.1674L112.836 19.6524C112.847 25.8905 116.181 30.5899 123.569 30.578Z" fill="#1B1B20"/>
<path d="M136.416 30.0694L141.178 30.0618L141.161 19.328C141.157 16.8885 142.52 15.6317 144.657 15.6282C146.968 15.6245 147.985 17.1214 147.988 19.2124L148.006 30.0507L152.768 30.0431L152.749 18.438C152.742 14.1514 150.252 11.5068 146.295 11.5132C143.95 11.517 142.095 12.5306 141.153 14.1004L141.137 4.62122L136.375 4.62891L136.416 30.0694Z" fill="#1B1B20"/>
<path d="M161.859 30.4464C163.959 30.443 166.269 29.5681 167.107 28.347L167.11 30.0198L171.696 30.0124L171.678 18.4422C171.671 14.2253 168.551 11.4772 163.999 11.4845C160.077 11.4908 157.243 13.3773 156.199 16.8989L160.61 16.8918C161.099 15.9152 162.114 15.1817 163.759 15.179C165.72 15.1759 166.912 16.4286 166.915 18.1013L166.919 20.5757C166.078 19.8801 164.466 19.0463 162.295 19.0498C157.918 19.0568 154.944 20.8738 154.951 24.8119C154.956 28.3317 157.761 30.453 161.859 30.4464ZM163.078 27.3079C161.083 27.3112 159.575 26.3378 159.573 24.665C159.57 22.9922 160.969 22.0838 163.21 22.0802C165.347 22.0768 166.923 23.0152 166.926 24.6183C166.928 26.1517 165.179 27.3046 163.078 27.3079Z" fill="#1B1B20"/>
<path d="M180.596 29.998L183.887 29.9926L183.881 26.1591L181.954 26.1623C180.694 26.1643 180.238 25.6771 180.237 24.4922L180.222 15.71L184.108 15.7038L184.102 11.8703L180.216 11.8766L180.208 6.9279L175.41 6.93564L175.418 11.8843L172.827 11.8885L172.834 15.722L175.425 15.7178L175.439 24.8485C175.445 28.0547 177.094 30.0036 180.596 29.998Z" fill="#1B1B20"/>
</g>
<defs>
<clipPath id="clip0_1_6706">
<rect width="184" height="41" fill="white" transform="translate(0.917969 1.03503) rotate(-0.0924153)"/>
</clipPath>
</defs>
</svg>
