<svg width="30" height="30" viewBox="0 0 30 30" fill="none" xmlns="http://www.w3.org/2000/svg">
<path d="M15 29.0625C14.6084 29.0591 14.2219 28.9739 13.8651 28.8125C13.5083 28.6511 13.1892 28.4169 12.9281 28.125C9.50625 24.375 3.75 17.2406 3.75 12.525C3.70741 9.49719 4.86824 6.57625 6.97757 4.40364C9.08689 2.23104 11.9723 0.984398 15 0.9375C18.0278 0.984398 20.9131 2.23104 23.0224 4.40364C25.1318 6.57625 26.2926 9.49719 26.25 12.525C26.25 17.2125 20.4938 24.3281 17.0719 28.1344C16.81 28.4246 16.4905 28.657 16.1337 28.8168C15.777 28.9766 15.3909 29.0603 15 29.0625ZM15 2.8125C12.4703 2.86179 10.0633 3.91163 8.30611 5.73207C6.54892 7.55252 5.58483 9.99516 5.625 12.525C5.625 15.4688 8.87813 20.8313 14.325 26.8781C14.4125 26.9689 14.5173 27.041 14.6333 27.0903C14.7493 27.1396 14.874 27.165 15 27.165C15.126 27.165 15.2507 27.1396 15.3667 27.0903C15.4827 27.041 15.5875 26.9689 15.675 26.8781C21.1219 20.8313 24.375 15.4688 24.375 12.525C24.4152 9.99516 23.4511 7.55252 21.6939 5.73207C19.9367 3.91163 17.5297 2.86179 15 2.8125Z" fill="white"/>
<path d="M15 17.8125C13.8875 17.8125 12.7999 17.4826 11.8749 16.8645C10.9499 16.2464 10.2289 15.3679 9.80318 14.3401C9.37744 13.3123 9.26604 12.1813 9.48309 11.0901C9.70013 9.99898 10.2359 8.9967 11.0225 8.21003C11.8092 7.42336 12.8115 6.88763 13.9026 6.67059C14.9938 6.45354 16.1248 6.56494 17.1526 6.99068C18.1804 7.41642 19.0589 8.13739 19.677 9.06242C20.2951 9.98745 20.625 11.075 20.625 12.1875C20.625 13.6793 20.0324 15.1101 18.9775 16.165C17.9226 17.2199 16.4918 17.8125 15 17.8125ZM15 8.4375C14.2583 8.4375 13.5333 8.65744 12.9166 9.06949C12.2999 9.48155 11.8193 10.0672 11.5355 10.7524C11.2516 11.4377 11.1774 12.1917 11.3221 12.9191C11.4668 13.6465 11.8239 14.3147 12.3484 14.8392C12.8728 15.3636 13.541 15.7208 14.2684 15.8654C14.9958 16.0101 15.7498 15.9359 16.4351 15.6521C17.1203 15.3682 17.706 14.8876 18.118 14.2709C18.5301 13.6542 18.75 12.9292 18.75 12.1875C18.75 11.1929 18.3549 10.2391 17.6517 9.53585C16.9484 8.83259 15.9946 8.4375 15 8.4375Z" fill="white"/>
</svg>
