<svg width="115" height="115" viewBox="0 0 115 115" fill="none" xmlns="http://www.w3.org/2000/svg">
<rect width="115" height="115" rx="25" fill="#3CBD96"/>
<path d="M82.625 68.6667V46.3334C82.624 45.3543 82.3655 44.3926 81.8755 43.545C81.3856 42.6973 80.6813 41.9934 79.8333 41.5038L60.2917 30.3371C59.4429 29.8471 58.4801 29.5891 57.5 29.5891C56.5199 29.5891 55.5571 29.8471 54.7083 30.3371L35.1667 41.5038C34.3187 41.9934 33.6144 42.6973 33.1245 43.545C32.6345 44.3926 32.376 45.3543 32.375 46.3334V68.6667C32.376 69.6458 32.6345 70.6075 33.1245 71.4551C33.6144 72.3028 34.3187 73.0067 35.1667 73.4963L54.7083 84.663C55.5571 85.153 56.5199 85.411 57.5 85.411C58.4801 85.411 59.4429 85.153 60.2917 84.663L79.8333 73.4963C80.6813 73.0067 81.3856 72.3028 81.8755 71.4551C82.3655 70.6075 82.624 69.6458 82.625 68.6667Z" stroke="white" stroke-width="4" stroke-linecap="round" stroke-linejoin="round"/>
<path d="M33.1288 43.4301L57.5 57.528L81.8712 43.4301" stroke="white" stroke-width="4" stroke-linecap="round" stroke-linejoin="round"/>
<path d="M57.5 85.64V57.5" stroke="white" stroke-width="4" stroke-linecap="round" stroke-linejoin="round"/>
</svg>
