<svg width="30" height="30" viewBox="0 0 30 30" fill="none" xmlns="http://www.w3.org/2000/svg">
<path d="M23 5.5L22.875 5.375C21.875 4.375 20.375 3.75 19 3.75H11C9.625 3.75 8.25 4.375 7.125 5.375L7 5.5L4.875 8.5C4.125 9.625 3.75 10.875 3.75 12.125V21.25C3.75 24 6 26.25 8.75 26.25H21.25C24 26.25 26.25 24 26.25 21.25V12.125C26.25 10.875 25.875 9.625 25.125 8.5L23 5.5ZM6.875 10L8.875 7.125C9.5 6.5 10.25 6.25 11 6.25H18.875C19.625 6.25 20.375 6.5 21 7.125L23.125 10H17.875H12.125H6.875ZM16.625 12.5V15.625L15.5 15.125C15.375 15 15.125 15 15 15C14.875 15 14.625 15 14.5 15.125L13.375 15.625V12.5H16.625ZM23.75 21.25C23.75 22.625 22.625 23.75 21.25 23.75H8.75C7.375 23.75 6.25 22.625 6.25 21.25V12.5H10.875V17.5C10.875 17.875 11.125 18.375 11.5 18.5C11.875 18.75 12.25 18.75 12.625 18.625L15 17.625L17.375 18.625C17.5 18.75 17.75 18.75 17.875 18.75C18.125 18.75 18.375 18.625 18.5 18.5C18.875 18.25 19.125 17.875 19.125 17.5V12.5H23.75V21.25Z" fill="white"/>
</svg>
