<svg width="16" height="16" viewBox="0 0 16 16" fill="none" xmlns="http://www.w3.org/2000/svg">
<path d="M14.259 10.9467V12.9467C14.2597 13.1324 14.2217 13.3162 14.1473 13.4863C14.0729 13.6564 13.9638 13.8091 13.827 13.9346C13.6902 14.0602 13.5287 14.1557 13.3528 14.2152C13.1769 14.2747 12.9905 14.2968 12.8056 14.2801C10.7542 14.0572 8.78362 13.3562 7.05229 12.2334C5.4415 11.2098 4.07584 9.84418 3.05229 8.2334C1.9256 6.4942 1.22445 4.51406 1.00562 2.4534C0.988959 2.26904 1.01087 2.08324 1.06995 1.90781C1.12904 1.73239 1.224 1.57119 1.3488 1.43448C1.47359 1.29777 1.62549 1.18854 1.79481 1.11375C1.96414 1.03895 2.14718 1.00024 2.33229 1.00006H4.33229C4.65582 0.99688 4.96948 1.11145 5.21479 1.32242C5.46011 1.53339 5.62034 1.82636 5.66562 2.14673C5.75003 2.78678 5.90659 3.41522 6.13229 4.02006C6.22198 4.25868 6.24139 4.51801 6.18822 4.76732C6.13505 5.01663 6.01153 5.24547 5.83229 5.42673L4.98562 6.2734C5.93466 7.94243 7.31659 9.32436 8.98562 10.2734L9.83229 9.42673C10.0135 9.24749 10.2424 9.12396 10.4917 9.07079C10.741 9.01762 11.0003 9.03704 11.239 9.12673C11.8438 9.35243 12.4722 9.50898 13.1123 9.5934C13.4361 9.63909 13.7319 9.8022 13.9433 10.0517C14.1547 10.3013 14.2671 10.6198 14.259 10.9467Z" stroke="#777E90" stroke-width="1.3" stroke-linecap="round" stroke-linejoin="round"/>
</svg>
