<svg width="183" height="42" viewBox="0 0 183 42" fill="none" xmlns="http://www.w3.org/2000/svg">
<path fill-rule="evenodd" clip-rule="evenodd" d="M62.6878 27.381L62.6521 26.9178L62.1829 26.9185L59.2706 26.9232L58.7438 26.9241L58.7663 27.4451C59.0159 33.2502 62.9753 37.089 70.0057 37.0777C76.7111 37.0669 81.2649 33.6104 81.2565 28.3895C81.252 25.5664 80.2595 23.5703 78.3723 22.2089C76.9206 21.1618 75.1859 20.573 72.3099 19.9605C72.1177 19.9196 71.9175 19.8777 71.6774 19.8281C71.5349 19.7986 71.0235 19.6935 71.0507 19.6991C65.8278 18.6238 64.1701 17.685 64.1656 14.8814C64.1609 11.9821 66.5526 10.132 70.569 10.1255C74.4766 10.1192 76.9499 12.4781 77.0709 16.1974L77.0867 16.6826L77.5771 16.6818L80.4489 16.6772L80.9663 16.6764L80.9535 16.1643C80.809 10.3667 76.8736 6.47113 70.5226 6.48137C64.2981 6.49141 60.1942 10.2063 60.2019 15.0079C60.2064 17.823 61.1978 19.7818 63.0879 21.0885C64.5278 22.084 66.1948 22.6103 69.135 23.1931C69.2727 23.2204 69.4163 23.2486 69.5874 23.2819C69.6932 23.3025 69.8128 23.3257 70.0372 23.3692C72.8191 23.9095 74.0467 24.2438 75.1672 24.8865C76.5581 25.6843 77.2496 26.826 77.2525 28.5962C77.2574 31.6696 74.6502 33.426 70.0807 33.4333C65.7063 33.4404 62.988 31.2727 62.6878 27.381ZM89.4111 5.95033L89.4103 5.44975L88.9047 5.45056L86.0329 5.4552L85.5273 5.45601L85.5281 5.95659L85.5765 35.9913L85.5773 36.4919L86.0829 36.4911L88.9547 36.4865L89.4603 36.4857L89.4595 35.9851L89.4509 30.6299L93.5319 26.6821L100.847 36.2678L100.999 36.4671L101.251 36.4666L104.81 36.4609L105.829 36.4593L105.212 35.657L96.2787 24.0462L104.487 15.932L105.353 15.0752L104.129 15.0772L100.286 15.0834L100.076 15.0837L99.9276 15.2319L89.443 25.72L89.4111 5.95033ZM125.727 27.0563L126.202 27.0555L126.231 26.5861C126.236 26.5036 126.244 26.3671 126.251 26.2027C126.257 26.0726 126.262 25.9457 126.265 25.8258C126.269 25.6959 126.271 25.5777 126.271 25.4736C126.26 19.1905 122.05 14.5677 115.838 14.5778C109.637 14.5878 105.228 19.5229 105.238 25.7478C105.248 32.1534 109.473 36.9339 115.914 36.9235C120.784 36.9157 124.542 34.0486 125.891 29.7068L126.092 29.058L125.407 29.0591L122.414 29.064L122.057 29.0645L121.938 29.3979C121.09 31.7745 118.788 33.3548 115.949 33.3594C112.237 33.3653 109.645 30.8458 109.173 27.083L125.727 27.0563ZM109.286 23.759C109.936 20.3881 112.435 18.1474 115.843 18.1419C119.356 18.1362 121.784 20.2956 122.32 23.7379L109.286 23.759ZM139 18.4249L139.506 18.4241L139.505 17.9235L139.501 15.5207L139.501 15.0201L138.995 15.021L134.768 15.0278L134.76 9.72164L134.759 9.22106L134.253 9.22188L131.381 9.22651L130.876 9.22733L130.877 9.7279L130.885 15.034L127.467 15.0396L126.962 15.0404L126.962 15.541L126.966 17.9437L126.967 18.4443L127.473 18.4435L130.891 18.438L130.91 30.4319C130.916 34.3664 132.981 36.4956 136.764 36.4895C137.425 36.4884 137.994 36.4483 138.472 36.3818C138.767 36.3407 138.971 36.2983 139.084 36.2672L139.454 36.1648L139.453 35.7843L139.449 33.2213L139.448 32.6002L138.835 32.7332C138.811 32.7385 138.761 32.7486 138.69 32.7618C138.57 32.7843 138.436 32.8069 138.293 32.8281C137.925 32.8822 137.561 32.9171 137.225 32.9236C137.19 32.9243 137.156 32.9247 137.123 32.9247C135.465 32.9274 134.796 32.1577 134.793 30.2254L134.774 18.4317L139 18.4249ZM151.104 36.8668C156.479 36.8581 160.268 33.4847 161.213 28.7182L161.332 28.1202L160.716 28.1212L157.804 28.1259L157.415 28.1265L157.316 28.4986C156.505 31.5407 154.292 33.2975 151.098 33.3027C147.113 33.3091 144.359 30.201 144.351 25.7247C144.344 21.2138 147.084 18.0915 151.074 18.0851C154.267 18.0799 156.486 19.8295 157.307 22.869L157.408 23.2408L157.796 23.2402L160.709 23.2355L161.324 23.2345L161.204 22.6369C160.243 17.8735 156.443 14.5123 151.068 14.5209C144.824 14.531 140.418 19.5009 140.428 25.7311C140.438 31.927 144.867 36.8769 151.104 36.8668ZM168.447 5.82285L168.446 5.32227L167.94 5.32308L165.068 5.32772L164.563 5.32853L164.564 5.82911L164.612 35.8639L164.613 36.3644L165.118 36.3636L167.99 36.359L168.496 36.3582L168.495 35.8576L168.476 23.8037C168.47 20.131 170.724 17.9733 174.149 17.9677C177.42 17.9625 179.067 19.8348 179.072 23.3861L179.092 35.8405L179.093 36.3411L179.599 36.3403L182.471 36.3356L182.976 36.3348L182.975 35.8342L182.954 22.8192C182.946 17.8027 179.804 14.4746 174.629 14.4829C171.967 14.4872 169.828 15.4563 168.464 16.8445L168.447 5.82285Z" fill="black"/>
<path fill-rule="evenodd" clip-rule="evenodd" d="M10.9856 1.70584L23.9845 0.334987L36.9879 1.6639L47.0747 14.9177L24.0507 41.3348L0.94155 14.9921L10.9856 1.70584Z" fill="#FDB300"/>
<path fill-rule="evenodd" clip-rule="evenodd" d="M10.2846 14.977L24.0506 41.3349L0.941559 14.9921L10.2846 14.977Z" fill="#EA6C00"/>
<path fill-rule="evenodd" clip-rule="evenodd" d="M37.7318 14.9327L24.0509 41.3349L47.0748 14.9176L37.7318 14.9327Z" fill="#EA6C00"/>
<path fill-rule="evenodd" clip-rule="evenodd" d="M10.2846 14.9769L37.7315 14.9327L24.0506 41.3348L10.2846 14.9769Z" fill="#FDAD00"/>
<path fill-rule="evenodd" clip-rule="evenodd" d="M23.9844 0.335042L10.9854 1.70567L10.2846 14.977L23.9844 0.335042Z" fill="#FDD231"/>
<path fill-rule="evenodd" clip-rule="evenodd" d="M23.9846 0.335001L36.988 1.66369L37.7316 14.9326L23.9846 0.335001Z" fill="#FDD231"/>
<path fill-rule="evenodd" clip-rule="evenodd" d="M47.0748 14.9176L36.9881 1.6637L37.7318 14.9326L47.0748 14.9176Z" fill="#FDAD00"/>
<path fill-rule="evenodd" clip-rule="evenodd" d="M0.94154 14.992L10.9854 1.70569L10.2846 14.977L0.94154 14.992Z" fill="#FDAD00"/>
<path fill-rule="evenodd" clip-rule="evenodd" d="M23.9844 0.335042L10.2846 14.977L37.7314 14.9327L23.9844 0.335042Z" fill="#FEEEB7"/>
</svg>
