<svg width="166" height="42" viewBox="0 0 166 42" fill="none" xmlns="http://www.w3.org/2000/svg">
<g clip-path="url(#clip0_1_6703)">
<path d="M52.9906 32.8391L54.9967 28.1577C57.2042 29.7771 60.0814 30.6315 62.9578 30.6269C65.067 30.6235 66.4078 29.8101 66.4058 28.5692C66.3521 25.1321 53.7016 27.8257 53.5914 19.1844C53.5362 14.7928 57.4618 11.3971 63.023 11.3881C66.3299 11.3828 69.6395 12.1893 71.9909 14.0475L70.1169 18.8285C67.9539 17.4509 65.2835 16.4924 62.7433 16.4965C61.0175 16.4993 59.868 17.3122 59.8697 18.3631C59.9233 21.7525 72.672 19.8698 72.829 28.129C72.8363 32.6165 69.0058 35.7734 63.5408 35.7822C59.5148 35.7887 55.8222 34.8402 52.9899 32.8391L52.9906 32.8391ZM133.162 26.3377C132.655 27.2362 131.917 27.9845 131.023 28.5059C130.129 29.0273 129.112 29.3029 128.076 29.3048C124.846 29.31 122.224 26.7066 122.218 23.4901C122.213 20.2737 124.827 17.6619 128.057 17.6567C129.093 17.655 130.111 17.9276 131.007 18.446C131.902 18.9645 132.643 19.7105 133.153 20.6074L138.746 17.5096C136.643 13.7882 132.639 11.2758 128.047 11.2833C121.282 11.2942 115.808 16.7635 115.819 23.5004C115.83 30.2367 121.322 35.6891 128.086 35.6781C132.679 35.6707 136.674 33.1456 138.765 29.4174L133.162 26.3377ZM76.4734 35.2838L83.472 35.2725L83.4171 1.20157L76.4191 1.21286L76.4734 35.2838ZM142.254 1.10667L142.309 35.1776L149.308 35.1663L149.291 24.9587L157.601 35.153L166.547 35.1385L155.981 23.0291L165.742 11.6981L157.18 11.7119L149.285 21.1321L149.253 1.09538L142.254 1.10667ZM104.996 11.7974L105.001 14.5669C103.848 12.6589 101.017 11.3269 98.045 11.3316C91.909 11.3415 87.0763 16.7442 87.0872 23.523C87.0981 30.3016 91.9483 35.7364 98.0843 35.7265C101.056 35.7217 103.883 34.3806 105.03 32.4689L105.034 35.2378L112.033 35.2265L111.995 11.7861L104.996 11.7974ZM105.02 26.4303C104.016 28.1026 101.909 29.3463 99.5604 29.3501C96.3298 29.3553 93.7076 26.7526 93.7024 23.5361C93.6972 20.3197 96.3111 17.7079 99.5416 17.7027C101.89 17.6989 104.001 18.9842 105.011 20.7005L105.02 26.4303Z" fill="black"/>
<path d="M15.9777 0.557378C13.7096 0.561036 11.8742 2.39533 11.8779 4.65375C11.8782 5.19028 11.9848 5.7215 12.1917 6.21707C12.3986 6.71264 12.7016 7.16284 13.0836 7.542C13.4655 7.92116 13.9188 8.22182 14.4176 8.42684C14.9165 8.63186 15.4511 8.7372 15.9909 8.73687L20.098 8.73025L20.0914 4.6405C20.0906 3.55686 19.6567 2.51793 18.8852 1.75221C18.1138 0.986492 17.0679 0.556706 15.9777 0.557378ZM15.9953 11.4634L5.04411 11.481C2.77605 11.4847 0.940631 13.319 0.944274 15.5781C0.947917 17.8365 2.78925 19.6649 5.0573 19.6612L16.0092 19.6436C18.2765 19.6399 20.1126 17.8056 20.109 15.5472C20.1054 13.2881 18.2633 11.4597 15.9953 11.4634Z" fill="#2FBDEE"/>
<path d="M42.0114 15.5119C42.0078 13.2528 40.1657 11.4244 37.8976 11.4281C35.6295 11.4317 33.7942 13.266 33.7979 15.5251L33.8045 19.6149L37.9108 19.6083C39.0011 19.6054 40.0455 19.1722 40.8145 18.4041C41.5835 17.6358 42.014 16.5955 42.0114 15.5119ZM31.0602 15.5295L31.0426 4.62289C31.0417 3.53924 30.6079 2.50031 29.8364 1.73459C29.065 0.968877 28.0192 0.539092 26.9288 0.539763C24.6607 0.543422 22.8254 2.37771 22.8291 4.63614L22.8467 15.5421C22.8503 17.8018 24.6915 19.6303 26.9596 19.6266C28.0499 19.6237 29.0943 19.1905 29.8633 18.4224C30.6323 17.6542 31.0628 16.6139 31.0602 15.5302" fill="#29AD72"/>
<path d="M26.9948 41.4385C28.0851 41.4358 29.1295 41.0026 29.8985 40.2343C30.6675 39.4662 31.098 38.4258 31.0954 37.3422C31.0945 36.2585 30.6607 35.2196 29.8892 34.4538C29.1177 33.6882 28.0719 33.2584 26.9816 33.259L22.8753 33.2656L22.8819 37.3555C22.8855 39.6139 24.7267 41.4422 26.9948 41.4385ZM26.9772 30.5325L37.9291 30.5149C40.1965 30.5112 42.0326 28.677 42.029 26.4179C42.0281 25.3342 41.5943 24.2953 40.8228 23.5295C40.0513 22.7639 39.0055 22.3341 37.9152 22.3347L26.964 22.3524C24.6959 22.356 22.8606 24.1904 22.8643 26.4488C22.8645 26.9853 22.9713 27.5165 23.1781 28.0121C23.3849 28.5077 23.688 28.9579 24.07 29.3371C24.4519 29.7161 24.9051 30.0168 25.4041 30.2218C25.9029 30.4268 26.4375 30.5323 26.9772 30.5319" fill="#E9A929"/>
<path d="M0.961868 26.4842C0.962191 27.0207 1.06883 27.5519 1.27571 28.0475C1.48258 28.5431 1.78564 28.9933 2.16757 29.3725C2.5495 29.7515 3.00282 30.0522 3.50166 30.2572C4.00051 30.4622 4.5351 30.5677 5.07489 30.5673C6.16514 30.5644 7.20962 30.1312 7.97861 29.3631C8.74757 28.5948 9.17808 27.5545 9.17542 26.471L9.16883 22.3812L5.0617 22.3878C2.79365 22.3914 0.958225 24.2258 0.961868 26.4842ZM11.913 26.4666L11.9306 37.3726C11.9343 39.6317 13.7756 41.4599 16.0437 41.4563C17.1339 41.4535 18.1783 41.0203 18.9473 40.2521C19.7163 39.484 20.1469 38.4435 20.1442 37.36L20.1266 26.4533C20.1262 25.9167 20.0196 25.3854 19.8127 24.8898C19.6058 24.3942 19.3027 23.944 18.9207 23.5648C18.5386 23.1856 18.0852 22.885 17.5863 22.68C17.0874 22.475 16.5527 22.3697 16.0129 22.3701C13.7448 22.3738 11.9094 24.2081 11.913 26.4666Z" fill="#DC1C50"/>
</g>
<defs>
<clipPath id="clip0_1_6703">
<rect width="165" height="41" fill="white" transform="translate(0.919922 0.480225) rotate(-0.0924153)"/>
</clipPath>
</defs>
</svg>
