<svg width="228" height="20" viewBox="0 0 228 20" fill="none" xmlns="http://www.w3.org/2000/svg">
<path fill-rule="evenodd" clip-rule="evenodd" d="M10 16.6667C13.6819 16.6667 16.6667 13.682 16.6667 10.0001C16.6667 6.31818 13.6819 3.33341 10 3.33341C6.31812 3.33341 3.33335 6.31818 3.33335 10.0001C3.33335 13.682 6.31812 16.6667 10 16.6667ZM10 18.3334C14.6024 18.3334 18.3334 14.6024 18.3334 10.0001C18.3334 5.39771 14.6024 1.66675 10 1.66675C5.39765 1.66675 1.66669 5.39771 1.66669 10.0001C1.66669 14.6024 5.39765 18.3334 10 18.3334Z" fill="#777E91"/>
<path d="M10 8.33325C10 7.87302 10.3731 7.49992 10.8334 7.49992H11.6667C12.1269 7.49992 12.5 7.12683 12.5 6.66659C12.5 6.20635 12.1269 5.83325 11.6667 5.83325H10.8334C9.4526 5.83325 8.33335 6.95254 8.33335 8.33325V9.99992H7.50002C7.03979 9.99992 6.66669 10.373 6.66669 10.8333C6.66669 11.2935 7.03978 11.6666 7.50002 11.6666H8.33335V16.6666C8.33335 17.1268 8.70644 17.4999 9.16669 17.4999C9.62694 17.4999 10 17.1268 10 16.6666V11.6666H11.6667C12.1269 11.6666 12.5 11.2935 12.5 10.8333C12.5 10.373 12.1269 9.99992 11.6667 9.99992H10V8.33325Z" fill="#777E91"/>
<path fill-rule="evenodd" clip-rule="evenodd" d="M54.6506 11.6665C53.2725 11.6704 52.3829 13.2403 53.2319 14.4298C54.4478 16.133 56.6525 17.5 60.3334 17.5C66.0376 17.5 70.6165 12.8514 69.9755 7.35925L70.9146 5.48108C71.5658 4.17857 70.4341 2.69685 69.0061 2.98245L67.7655 3.23057C67.4366 3.05702 67.0961 2.92606 66.8052 2.83117C66.2382 2.64627 65.552 2.5 64.9167 2.5C63.7756 2.5 62.7908 2.79276 62.0081 3.37994C61.2344 3.96053 60.7986 4.72354 60.5594 5.42421C60.4491 5.74717 60.3757 6.07112 60.3286 6.38203C59.8859 6.24269 59.4345 6.05522 58.9925 5.82629C57.9899 5.30693 57.1791 4.64852 56.7217 4.07126C55.9543 3.10275 54.3281 3.17456 53.7575 4.43351C52.9532 6.20789 53.1738 8.31122 53.8968 10.0108C54.1391 10.5803 54.4543 11.1434 54.8394 11.6652C54.7735 11.666 54.7104 11.6663 54.6506 11.6665ZM60.3333 15.8333C57.1139 15.8333 55.4491 14.6672 54.5883 13.4614C54.5497 13.4072 54.5887 13.3333 54.6552 13.3332C55.5309 13.3307 57.3284 13.2892 58.5139 12.5954C58.5752 12.5595 58.5617 12.4691 58.4944 12.4465C55.7309 11.5173 54.1601 7.58216 55.2754 5.12158C55.301 5.06517 55.3768 5.05772 55.4153 5.10628C56.6893 6.71432 59.475 8.28933 61.8986 8.33242C61.9512 8.33333 61.991 8.28558 61.983 8.23361C61.8853 7.60044 61.5124 4.16667 64.9166 4.16667C65.7296 4.16667 66.9391 4.56319 67.3846 4.96942C67.4051 4.98819 67.4331 4.99672 67.4604 4.99125L69.3329 4.61675C69.4009 4.60315 69.4548 4.67371 69.4238 4.73573L68.2624 7.05849C68.2543 7.07462 68.2518 7.09312 68.2549 7.11088C69.0683 11.6833 65.3233 15.8333 60.3333 15.8333Z" fill="#777E91"/>
<path fill-rule="evenodd" clip-rule="evenodd" d="M117.333 3.33341H110.667C108.826 3.33341 107.333 4.8258 107.333 6.66675V13.3334C107.333 15.1743 108.826 16.6667 110.667 16.6667H117.333C119.174 16.6667 120.667 15.1743 120.667 13.3334V6.66675C120.667 4.8258 119.174 3.33341 117.333 3.33341ZM110.667 1.66675C107.905 1.66675 105.667 3.90532 105.667 6.66675V13.3334C105.667 16.0948 107.905 18.3334 110.667 18.3334H117.333C120.095 18.3334 122.333 16.0948 122.333 13.3334V6.66675C122.333 3.90532 120.095 1.66675 117.333 1.66675H110.667Z" fill="#777E91"/>
<path d="M118.167 6.66667C118.627 6.66667 119 6.29357 119 5.83333C119 5.3731 118.627 5 118.167 5C117.706 5 117.333 5.3731 117.333 5.83333C117.333 6.29357 117.706 6.66667 118.167 6.66667Z" fill="#777E91"/>
<path fill-rule="evenodd" clip-rule="evenodd" d="M118.167 9.99992C118.167 12.3011 116.301 14.1666 114 14.1666C111.699 14.1666 109.833 12.3011 109.833 9.99992C109.833 7.69874 111.699 5.83325 114 5.83325C116.301 5.83325 118.167 7.69874 118.167 9.99992ZM116.5 9.99992C116.5 11.3807 115.381 12.4999 114 12.4999C112.619 12.4999 111.5 11.3807 111.5 9.99992C111.5 8.61917 112.619 7.49992 114 7.49992C115.381 7.49992 116.5 8.61917 116.5 9.99992Z" fill="#777E91"/>
<path d="M170.167 3.33325C169.706 3.33325 169.333 3.70635 169.333 4.16659C169.333 4.62682 169.706 4.99992 170.167 4.99992H173.5C173.96 4.99992 174.333 4.62682 174.333 4.16659C174.333 3.70635 173.96 3.33325 173.5 3.33325H170.167Z" fill="#777E91"/>
<path fill-rule="evenodd" clip-rule="evenodd" d="M167.667 10.8334C167.667 8.53225 169.532 6.66675 171.833 6.66675C174.135 6.66675 176 8.53225 176 10.8334V11.6667C176 12.127 175.627 12.5001 175.167 12.5001H169.333C169.333 13.8808 170.453 15.0001 171.833 15.0001C172.415 15.0001 172.949 14.8017 173.374 14.4691C173.596 14.2952 173.858 14.1667 174.14 14.1667C174.854 14.1667 175.311 14.9043 174.811 15.4147C174.055 16.1872 173 16.6667 171.833 16.6667C169.532 16.6667 167.667 14.8012 167.667 12.5001V10.8334ZM171.833 8.33341C170.453 8.33341 169.333 9.45266 169.333 10.8334H174.333C174.333 9.45266 173.214 8.33341 171.833 8.33341Z" fill="#777E91"/>
<path fill-rule="evenodd" clip-rule="evenodd" d="M157.667 4.99992V8.33325H161.833C162.754 8.33325 163.5 7.58706 163.5 6.66659C163.5 5.74611 162.754 4.99992 161.833 4.99992H157.667ZM164.166 9.04725C164.784 8.44225 165.167 7.59914 165.167 6.66659C165.167 4.82564 163.674 3.33325 161.833 3.33325H157.333C156.597 3.33325 156 3.93021 156 4.66659V15.238C156 16.027 156.64 16.6666 157.429 16.6666H161.833C164.135 16.6666 166 14.8011 166 12.4999C166 11.0632 165.273 9.79634 164.166 9.04725ZM157.667 9.99992V14.9999H161.833C163.214 14.9999 164.333 13.8807 164.333 12.4999C164.333 11.1192 163.214 9.99992 161.833 9.99992H157.667Z" fill="#777E91"/>
<path fill-rule="evenodd" clip-rule="evenodd" d="M218 16.6667C221.682 16.6667 224.667 13.682 224.667 10.0001C224.667 6.31818 221.682 3.33341 218 3.33341C214.318 3.33341 211.333 6.31818 211.333 10.0001C211.333 13.682 214.318 16.6667 218 16.6667ZM218 18.3334C222.602 18.3334 226.333 14.6024 226.333 10.0001C226.333 5.39771 222.602 1.66675 218 1.66675C213.398 1.66675 209.667 5.39771 209.667 10.0001C209.667 14.6024 213.398 18.3334 218 18.3334Z" fill="#777E91"/>
<path d="M220.895 17.8167C220.599 15.7082 220.106 13.7946 219.412 11.9858C217.714 12.8093 215.814 14.2482 213.202 16.8141C212.745 16.4916 212.321 16.1244 211.939 15.7187C214.682 13.013 216.778 11.3954 218.763 10.4486C218.509 9.89637 218.234 9.35196 217.939 8.81254C215.601 9.54937 212.936 9.93762 209.667 9.99312C209.667 9.42112 209.725 8.86254 209.836 8.32293C212.72 8.26112 215.054 7.92722 217.074 7.33376C216.137 5.82934 215.038 4.34437 213.775 2.81576C214.267 2.52552 214.792 2.28447 215.343 2.09937C216.617 3.66567 217.734 5.2051 218.69 6.77942C220.486 6.06937 222.078 5.11107 223.668 3.89098C224.076 4.27018 224.447 4.68987 224.773 5.14364C223.12 6.42239 221.434 7.45881 219.524 8.24011C219.805 8.76487 220.069 9.29546 220.315 9.83396C222.204 9.23554 224.063 9.17371 226.292 9.16737C226.319 9.44121 226.333 9.71904 226.333 10C226.333 10.2816 226.319 10.56 226.292 10.8344C224.139 10.842 222.541 10.9027 220.964 11.3775C221.641 13.1405 222.142 15.0042 222.464 17.0381C221.974 17.3499 221.448 17.6118 220.895 17.8167Z" fill="#777E91"/>
</svg>
