<svg width="828" height="710" viewBox="0 0 828 710" fill="none" xmlns="http://www.w3.org/2000/svg">
<path d="M92.9909 29.4261L91.5452 40.389C91.5086 40.6525 91.3924 40.8985 91.2119 41.094C91.0315 41.2894 90.7956 41.425 90.5358 41.4824C90.2761 41.5399 90.005 41.5164 89.759 41.4153C89.513 41.3142 89.3038 41.1401 89.1595 40.9166L83.2257 31.5858C83.1225 31.4251 82.9858 31.2888 82.8248 31.1861C82.6639 31.0835 82.4826 31.017 82.2934 30.9912L71.3305 29.5455C71.067 29.509 70.821 29.3927 70.6256 29.2123C70.4301 29.0318 70.2945 28.7959 70.2371 28.5362C70.1797 28.2764 70.2031 28.0054 70.3042 27.7593C70.4054 27.5133 70.5794 27.3041 70.8029 27.1599L80.1337 21.226C80.2944 21.1229 80.4307 20.9861 80.5334 20.8252C80.636 20.6642 80.7025 20.4829 80.7283 20.2938L82.174 9.33084C82.2105 9.06735 82.3268 8.82136 82.5072 8.6259C82.6877 8.43044 82.9236 8.29489 83.1833 8.23745C83.4431 8.18001 83.7142 8.20343 83.9602 8.30457C84.2062 8.40571 84.4154 8.57972 84.5596 8.80323L90.4935 18.1341C90.5966 18.2947 90.7334 18.4311 90.8943 18.5337C91.0553 18.6364 91.2366 18.7029 91.4257 18.7287L102.389 20.1743C102.652 20.2109 102.898 20.3272 103.094 20.5076C103.289 20.688 103.425 20.9239 103.482 21.1837C103.54 21.4434 103.516 21.7145 103.415 21.9605C103.314 22.2066 103.14 22.4157 102.916 22.56L93.5854 28.4938C93.4248 28.597 93.2884 28.7337 93.1858 28.8947C93.0831 29.0556 93.0166 29.2369 92.9909 29.4261V29.4261Z" fill="#FFC27A"/>
<path d="M0 99H439C458.882 99 475 115.118 475 135V674C475 693.882 458.882 710 439 710H0V99Z" fill="#EBF6ED"/>
<g clip-path="url(#clip0_158_65)">
<path opacity="0.11" d="M800.547 585H204.158C198.984 585 194.726 580.781 194.726 575.577C194.726 570.409 198.949 566.154 204.158 566.154H800.547C805.721 566.154 809.98 570.374 809.98 575.577C809.98 580.781 805.721 585 800.547 585Z" fill="black"/>
<path d="M648.608 278.302L691.195 278.408L695.946 284.279L728.326 365.955L725.018 371.616L654.767 372.143L642.942 342.152L648.608 278.302Z" fill="#BDDFE0"/>
<path d="M367.149 529.483H170.687C166.886 529.483 163.894 526.389 164.035 522.592L164.634 505.012C164.774 501.214 167.977 498.12 171.778 498.12H368.24C372.041 498.12 375.033 501.214 374.892 505.012L374.294 522.592C374.153 526.389 370.95 529.483 367.149 529.483Z" fill="#2B2B2B"/>
<path d="M750.429 482.123C769.118 482.123 783.548 504.027 782.633 531.065C781.718 558.103 765.88 578.566 747.191 578.566C728.502 578.566 714.037 558.103 714.917 531.065C715.832 504.027 731.74 482.123 750.429 482.123Z" fill="#323231"/>
<path d="M747.191 578.566H718.084L721.322 482.123H750.429L747.191 578.566Z" fill="#323231"/>
<path d="M721.322 482.123C740.011 482.123 754.441 504.027 753.526 531.065C752.611 558.103 736.773 578.566 718.084 578.566C699.395 578.566 684.895 558.103 685.81 531.065C686.725 504.027 702.633 482.123 721.322 482.123Z" fill="#414141"/>
<path d="M720.794 498.12C733.394 498.12 743.108 512.887 742.475 531.1C741.876 549.313 731.142 564.08 718.577 564.08C705.977 564.08 696.263 549.313 696.896 531.1C697.495 512.887 708.194 498.12 720.794 498.12Z" fill="#282828"/>
<path d="M476.854 482.123C495.542 482.123 509.973 503.781 509.093 530.538C508.213 557.259 492.375 577.511 473.651 577.511C454.962 577.511 440.461 557.294 441.376 530.538C442.256 503.781 458.165 482.123 476.854 482.123Z" fill="#323231"/>
<path d="M473.651 577.476H451.583L447.747 482.123H476.854L473.651 577.476Z" fill="#323231"/>
<path d="M453.097 482.123C471.785 482.123 486.216 503.781 485.336 530.538C484.456 557.259 468.618 577.511 449.894 577.511C431.17 577.511 416.704 557.259 417.619 530.538C418.499 503.781 434.408 482.123 453.097 482.123Z" fill="#414141"/>
<path d="M447.219 497.945C459.819 497.945 469.533 512.536 468.935 530.538C468.336 548.539 457.637 563.131 445.037 563.131C432.437 563.131 422.723 548.539 423.321 530.538C423.919 512.536 434.619 497.945 447.219 497.945Z" fill="#282828"/>
<path d="M539.079 514.575H720.301C725.334 514.575 729.347 518.689 729.171 523.752L728.748 536.831C728.572 541.859 724.314 546.008 719.281 546.008H538.059C533.026 546.008 529.013 541.894 529.189 536.831L529.612 523.752C529.788 518.689 534.046 514.575 539.079 514.575Z" fill="#353535"/>
<path d="M268.355 514.575H449.577C454.61 514.575 458.622 518.689 458.446 523.752L458.024 536.831C457.848 541.859 453.589 546.008 448.556 546.008H267.299C262.266 546.008 258.254 541.894 258.43 536.831L258.852 523.752C259.028 518.689 263.322 514.575 268.355 514.575Z" fill="#353535"/>
<path d="M717.134 376.96H732.338C735.295 376.96 737.653 379.386 737.547 382.34V382.621C737.442 385.574 734.943 388 731.986 388H716.782C713.825 388 711.467 385.574 711.573 382.621V382.34C711.643 379.386 714.177 376.96 717.134 376.96Z" fill="#3D3D3D"/>
<path d="M717.521 350.063H741.313C743.671 350.063 745.502 352.489 745.396 355.478L744.903 369.682C744.798 372.636 742.791 375.097 740.433 375.097H716.641C714.283 375.097 712.453 372.671 712.558 369.682L713.051 355.478C713.157 352.489 715.163 350.063 717.521 350.063Z" fill="#3D3D3D"/>
<path d="M198.175 247.643C174.347 320.142 174.031 471.61 176.459 505.188C176.987 512.747 234.919 519.498 242.521 519.498H608.344L761.762 501.988L818.251 499.808L820.609 429.102C820.926 419.363 815.189 410.678 806.179 407.233L749.373 385.574C745.466 384.098 742.44 381.039 740.961 377.136L689.893 240.47C685.106 232.348 676.377 226.231 666.804 226.231L502.793 225.774L496.282 225.949L216.723 225.035C208.487 225.035 200.744 239.732 198.175 247.643ZM647.095 282.24C647.517 281.396 648.115 280.693 648.854 280.13C649.981 279.04 651.318 278.126 652.972 277.423C655.577 276.333 657.829 276.931 659.413 278.337C660.011 277.986 660.715 277.704 661.525 277.529C666.558 276.509 671.626 276.966 676.624 277.493C679.299 277.775 682.29 277.775 685.071 278.267C690.456 277.845 695.313 281.677 696.122 287.022C696.404 287.444 696.65 287.936 696.826 288.463C698.163 292.26 699.29 296.163 700.24 300.066C700.944 300.664 701.507 301.543 701.859 302.668C702.704 305.375 703.513 308.082 704.288 310.825C707.138 318.56 709.321 326.541 712.84 334.03C716.993 342.89 720.337 351.926 722.906 361.384C726.672 364.584 724.525 371.159 720.09 372.495C719.034 372.952 717.873 373.233 716.817 373.233H716.536C716.008 373.233 715.515 373.163 715.057 373.022C701.824 374.815 688.872 371.967 675.674 372.811C667.191 373.374 654.732 375.835 649.277 367.713C647.552 365.147 646.919 362.017 646.778 358.853C645.546 357.693 644.877 355.97 645.265 353.72C645.968 349.465 645.335 345.457 645.159 341.238C645.018 336.948 645.546 332.729 645.933 328.475C646.637 320.845 646.672 313.602 645.37 306.113C644.103 298.941 642.695 288.78 647.095 282.24Z" fill="#89C147"/>
<path d="M214.33 296.234H489.841C496.95 309.946 509.093 320.74 519.159 332.307C531.864 346.934 544.711 361.349 558.719 374.71C581.948 396.825 607.746 419.609 621.332 449.143C622.035 451.745 623.302 454.382 625.273 456.913C630.729 463.945 632.453 471.294 633.967 481.138C635.797 492.741 636.29 504.519 636.43 516.333L608.309 519.533H242.521C234.884 519.533 176.987 512.817 176.459 505.223C174.031 471.645 172.271 381.988 196.134 309.489C198.703 301.578 206.129 296.234 214.33 296.234Z" fill="#2B2B2B"/>
<path d="M208.522 225.035L505.151 225.984C513.668 226.02 521.27 231.856 525.036 239.31C529.858 248.838 569.453 347.285 580.821 375.624C582.757 380.476 586.629 384.273 591.556 386.137L646.109 406.916C655.542 410.503 661.56 419.644 661.208 429.84L658.85 499.773L601.2 504.027C601.2 504.027 594.161 474.528 553.686 474.739C508.494 474.985 503.919 519.498 503.919 519.498H333.889C333.889 519.498 318.192 479.556 286.164 479.556C254.136 479.556 247.343 519.498 247.343 519.498L189.059 519.392C181.422 519.392 175.333 512.782 174.805 505.223C172.377 471.61 172.165 323.658 189.974 247.537C191.875 239.486 196.838 224.402 208.522 225.035Z" fill="#ABD661"/>
<path d="M821.102 496.503C825.044 496.503 828.106 499.703 828 503.605L827.472 519.427C827.296 524.279 823.249 528.182 818.427 528.182L660.399 530.221L662.158 495.8L821.102 496.503Z" fill="#474747"/>
<path d="M485.617 277.529L515.956 277.845C518.138 277.88 520.039 279.146 520.848 281.15L553.51 362.088C554.988 365.709 552.172 369.788 548.195 369.788H482.485C479.423 369.788 477.065 367.326 477.17 364.268L479.88 283.013C479.986 279.955 482.555 277.493 485.617 277.529Z" fill="#3D3D3D"/>
<path d="M511.134 304.777H530.386L553.51 362.088C554.988 365.709 552.172 369.788 548.195 369.788H501.948L503.884 311.704C504.025 307.871 507.263 304.777 511.134 304.777Z" fill="#474646"/>
<path d="M556.994 277.74L653.359 278.232C651.6 279.146 650.262 280.974 650.192 283.049L647.482 364.303C647.376 367.362 649.91 370.385 652.972 370.385H669.585C669.338 370.772 669.092 371.194 668.916 371.651L590.254 370.772C588.74 370.772 587.403 369.823 586.84 368.452L553.263 283.084C552.243 280.517 554.214 277.704 556.994 277.74Z" fill="#3D3D3D"/>
<path d="M664.516 317.927L672.682 363.142L586.84 368.416L561.288 305.41L649.347 305.34C656.879 305.34 663.179 310.579 664.516 317.927Z" fill="#474646"/>
<path d="M672.4 345.492C687.077 345.492 699.255 352.946 703.02 363.178C700.733 363.248 698.375 363.248 695.981 363.248C692.215 356.568 683.029 351.891 672.189 351.891C664.798 351.891 656.949 356.286 653.711 360.857C652.409 359.205 648.643 361.666 647.059 360.294C650.227 351.434 663.285 345.492 672.4 345.492Z" fill="#515151"/>
<g opacity="0.08">
<path d="M692.708 351.083C682.185 353.333 671.168 351.294 660.821 348.024C664.833 346.406 668.951 345.457 672.4 345.457C680.178 345.492 687.218 347.602 692.708 351.083Z" fill="white"/>
</g>
<path d="M510.113 519.04C510.113 519.04 513.809 522.451 508.565 522.416C503.321 522.345 503.954 519.497 503.954 519.497L510.113 519.04Z" fill="#2B2B2B"/>
<path d="M585.186 363.705C583.25 367.573 586.241 372.214 590.606 372.178L719.21 370.772C721.146 370.737 725.053 371.897 726.074 370.245L724.314 359.591C714.67 354.247 585.186 363.705 585.186 363.705Z" fill="#6D6D6D"/>
<path d="M252.763 519.005C252.763 519.005 257.163 522.592 251.919 522.592C246.463 522.592 247.378 519.497 247.378 519.497L252.763 519.005Z" fill="#2B2B2B"/>
<path d="M603.919 532.478C605.659 505.834 592.005 483.253 573.422 482.042C554.84 480.831 538.365 501.448 536.625 528.092C534.886 554.736 548.539 577.317 567.122 578.528C585.704 579.739 602.179 559.122 603.919 532.478Z" fill="#323231"/>
<path d="M568.644 578.566H539.643L542.881 481.982H571.917L568.644 578.566Z" fill="#323231"/>
<path d="M574.898 532.456C576.638 505.812 562.984 483.231 544.402 482.02C525.819 480.809 509.344 501.427 507.604 528.071C505.865 554.715 519.518 577.296 538.101 578.507C556.683 579.718 573.158 559.1 574.898 532.456Z" fill="#414141"/>
<path d="M542.353 497.769C554.917 497.769 564.596 512.325 563.998 530.292C563.4 548.258 552.735 562.814 540.17 562.814C527.606 562.814 517.927 548.258 518.525 530.292C519.124 512.325 529.788 497.769 542.353 497.769Z" fill="#323231"/>
<path d="M542.141 504.273C552.172 504.273 559.95 515.911 559.458 530.292C558.965 544.672 550.448 556.31 540.382 556.31C530.351 556.31 522.573 544.672 523.065 530.292C523.558 515.911 532.075 504.273 542.141 504.273Z" fill="#C8CAC4"/>
<path d="M557.583 531.328C558.427 518.403 551.799 507.449 542.78 506.862C533.76 506.274 525.764 516.275 524.92 529.2C524.076 542.124 530.703 553.078 539.723 553.666C548.743 554.254 556.739 544.253 557.583 531.328Z" fill="#C8CAC4"/>
<path d="M542.036 506.875C542.775 506.875 543.479 506.981 544.218 507.121C536.158 508.633 529.647 518.443 529.26 530.327C528.873 542.211 534.715 551.985 542.669 553.532C541.965 553.673 541.226 553.778 540.487 553.778C531.442 553.778 524.473 543.301 524.896 530.362C525.318 517.353 532.991 506.875 542.036 506.875Z" fill="#AFAFAD"/>
<path d="M547.491 508.457C549.497 509.301 550.764 511.094 550.307 512.466C549.849 513.837 547.878 514.259 545.872 513.415C543.866 512.571 542.599 510.778 543.056 509.407C543.514 508.035 545.485 507.614 547.491 508.457Z" fill="#414141"/>
<path d="M555.305 526.565C556.853 526.565 558.05 528.569 557.979 531.065C557.909 533.561 556.572 535.565 555.023 535.565C553.474 535.565 552.278 533.561 552.348 531.065C552.418 528.569 553.756 526.565 555.305 526.565Z" fill="#414141"/>
<path d="M544.394 547.449C546.506 546.676 548.477 547.309 548.829 548.891C549.181 550.473 547.773 552.407 545.696 553.18C543.584 553.954 541.613 553.321 541.262 551.739C540.91 550.157 542.317 548.223 544.394 547.449Z" fill="#414141"/>
<path d="M530.421 542.175C531.512 544.18 531.935 546.149 531.372 546.606C530.808 547.063 529.506 545.832 528.45 543.828C527.394 541.824 526.937 539.855 527.5 539.398C528.063 538.941 529.365 540.171 530.421 542.175Z" fill="#414141"/>
<path d="M531.899 514.013C532.357 514.364 531.935 516.193 530.914 518.126C529.893 520.06 528.697 521.326 528.239 520.974C527.782 520.623 528.204 518.794 529.225 516.861C530.245 514.927 531.442 513.661 531.899 514.013Z" fill="#414141"/>
<path d="M540.276 520.587C544.112 520.587 547.069 524.982 546.893 530.362C546.717 535.776 543.479 540.136 539.643 540.136C535.806 540.136 532.85 535.741 533.026 530.362C533.202 524.982 536.475 520.587 540.276 520.587Z" fill="#414141"/>
<path d="M548.617 533.21C549.427 533.21 550.025 534.018 549.99 535.003C549.955 535.987 549.286 536.796 548.477 536.796C547.667 536.796 547.069 535.987 547.104 535.003C547.139 534.018 547.843 533.21 548.617 533.21Z" fill="#414141"/>
<path d="M548.899 524.666C549.708 524.666 550.307 525.475 550.272 526.459C550.236 527.444 549.568 528.252 548.758 528.252C547.949 528.252 547.35 527.444 547.386 526.459C547.456 525.475 548.125 524.666 548.899 524.666Z" fill="#414141"/>
<path d="M545.168 518.337C545.978 518.337 546.576 519.146 546.541 520.13C546.506 521.115 545.837 521.923 545.027 521.923C544.218 521.923 543.62 521.115 543.655 520.13C543.69 519.146 544.359 518.337 545.168 518.337Z" fill="#414141"/>
<path d="M540.558 515.665C541.367 515.665 541.965 516.474 541.93 517.458C541.895 518.443 541.226 519.251 540.417 519.251C539.607 519.251 539.009 518.443 539.044 517.458C539.079 516.439 539.748 515.665 540.558 515.665Z" fill="#414141"/>
<path d="M535.032 518.794C535.841 518.794 536.44 519.603 536.405 520.587C536.369 521.572 535.701 522.381 534.891 522.381C534.082 522.381 533.483 521.572 533.518 520.587C533.554 519.603 534.222 518.794 535.032 518.794Z" fill="#414141"/>
<path d="M531.97 524.666C532.779 524.666 533.378 525.475 533.342 526.459C533.307 527.444 532.639 528.252 531.829 528.252C531.02 528.252 530.421 527.444 530.456 526.459C530.492 525.475 531.16 524.666 531.97 524.666Z" fill="#414141"/>
<path d="M533.038 535.116C533.13 534.13 532.561 533.271 531.768 533.197C530.974 533.124 530.256 533.863 530.165 534.849C530.073 535.835 530.641 536.694 531.435 536.768C532.228 536.842 532.946 536.103 533.038 535.116Z" fill="#414141"/>
<path d="M534.715 539.503C535.525 539.503 536.123 540.312 536.088 541.297C536.053 542.281 535.384 543.09 534.574 543.09C533.765 543.09 533.167 542.281 533.202 541.297C533.237 540.312 533.906 539.503 534.715 539.503Z" fill="#414141"/>
<path d="M540.03 542.211C540.839 542.211 541.438 543.019 541.402 544.004C541.367 544.988 540.698 545.797 539.889 545.797C539.079 545.797 538.481 544.988 538.516 544.004C538.551 543.019 539.22 542.211 540.03 542.211Z" fill="#414141"/>
<path d="M545.168 539.503C545.978 539.503 546.576 540.312 546.541 541.297C546.506 542.281 545.837 543.09 545.027 543.09C544.218 543.09 543.62 542.281 543.655 541.297C543.69 540.312 544.359 539.503 545.168 539.503Z" fill="#414141"/>
<path d="M345.375 531.855C347.063 505.518 333.696 483.226 315.519 482.063C297.342 480.901 281.238 501.308 279.55 527.644C277.862 553.981 291.229 576.273 309.406 577.436C327.583 578.599 343.687 558.191 345.375 531.855Z" fill="#323231"/>
<path opacity="0.22" d="M714.776 372.143L657.513 371.51C657.513 371.51 573.289 279.005 572.234 277.81L632.664 277.74L714.776 372.143Z" fill="white"/>
<path opacity="0.11" d="M548.16 368.522H510.641L478.649 331.745L480.268 283.822L553.932 364.443C553.404 366.904 550.94 368.522 548.16 368.522Z" fill="white"/>
<path d="M722.308 374.886C722.272 374.886 722.272 374.886 722.237 374.886L590.219 373.444C587.614 373.409 585.291 371.827 584.341 369.401L550.764 284.033C549.99 282.029 550.236 279.744 551.468 277.95C552.7 276.122 554.777 275.032 556.959 275.032H556.994L691.23 275.7C693.94 275.7 696.263 277.353 697.213 279.884L728.572 366.025C729.312 368.03 728.995 370.28 727.728 372.038C726.461 373.831 724.455 374.886 722.308 374.886ZM556.959 280.412C556.36 280.412 556.008 280.798 555.903 280.974C555.762 281.185 555.551 281.607 555.762 282.064L589.339 367.432C589.479 367.819 589.867 368.065 590.289 368.065L722.308 369.506C722.906 369.506 723.223 369.12 723.363 368.944C723.504 368.733 723.715 368.346 723.539 367.854L692.18 281.713C692.039 281.326 691.652 281.045 691.23 281.045L556.959 280.412Z" fill="#3A3A3A"/>
<path d="M310.871 577.476H282.468L285.671 481.982H314.074L310.871 577.476Z" fill="#323231"/>
<path d="M316.98 531.865C318.668 505.528 305.301 483.236 287.124 482.073C268.947 480.911 252.843 501.318 251.155 527.654C249.467 553.991 262.834 576.283 281.011 577.446C299.188 578.609 315.292 558.201 316.98 531.865Z" fill="#414141"/>
<path d="M285.143 497.593C297.426 497.593 306.894 512.008 306.296 529.764C305.697 547.52 295.244 561.935 282.961 561.935C270.678 561.935 261.21 547.52 261.809 529.764C262.407 511.973 272.86 497.593 285.143 497.593Z" fill="#323231"/>
<path d="M284.932 504.027C294.752 504.027 302.354 515.56 301.861 529.764C301.368 543.969 293.027 555.501 283.207 555.501C273.388 555.501 265.786 543.969 266.278 529.764C266.736 515.524 275.112 504.027 284.932 504.027Z" fill="#C8CAC4"/>
<path d="M284.932 504.027C294.752 504.027 302.354 515.56 301.861 529.764C301.368 543.969 293.027 555.501 283.207 555.501C273.388 555.501 265.786 543.969 266.278 529.764C266.736 515.524 275.112 504.027 284.932 504.027Z" fill="#C8CAC4"/>
<path d="M284.052 507.473C286.023 507.473 287.888 508.035 289.578 508.985C283.735 512.219 279.371 520.271 279.054 529.729C278.738 539.187 282.539 547.239 288.17 550.473C286.41 551.458 284.51 551.985 282.539 551.985C274.021 551.985 267.475 542.035 267.897 529.729C268.32 517.458 275.535 507.473 284.052 507.473Z" fill="#8C8C8C"/>
<path d="M292.358 518.865C296.617 518.865 299.89 523.787 299.679 529.834C299.468 535.882 295.878 540.804 291.619 540.804C287.361 540.804 284.087 535.882 284.299 529.834C284.51 523.787 288.135 518.865 292.358 518.865Z" fill="#414141"/>
<path d="M301.58 532.999C301.404 534.335 301.192 535.636 300.911 536.902C300.313 536.62 299.925 535.882 299.961 535.038C299.996 533.913 300.735 533.034 301.58 532.999Z" fill="#414141"/>
<path d="M301.509 523.541C301.685 524.807 301.791 526.108 301.826 527.444C301.791 527.444 301.791 527.444 301.756 527.444C300.876 527.444 300.172 526.529 300.207 525.439C300.313 524.49 300.84 523.752 301.509 523.541Z" fill="#414141"/>
<path d="M297.778 516.368C298.658 516.368 299.362 517.282 299.327 518.372C299.292 519.497 298.553 520.376 297.673 520.376C296.793 520.376 296.089 519.462 296.124 518.372C296.124 517.247 296.899 516.368 297.778 516.368Z" fill="#414141"/>
<path d="M292.675 513.345C293.555 513.345 294.259 514.259 294.224 515.349C294.189 516.474 293.449 517.353 292.57 517.353C291.69 517.353 290.986 516.439 291.021 515.349C291.021 514.224 291.795 513.345 292.675 513.345Z" fill="#414141"/>
<path d="M286.551 516.861C287.431 516.861 288.135 517.775 288.1 518.865C288.064 519.99 287.325 520.869 286.445 520.869C285.566 520.869 284.862 519.955 284.897 518.865C284.897 517.775 285.671 516.861 286.551 516.861Z" fill="#414141"/>
<path d="M633.368 440.037H815.752C819.764 440.037 822.932 443.306 822.791 447.315L821.806 476.673C821.665 481.279 817.758 485.041 813.147 485.041H791.925C790.657 485.041 789.531 485.85 789.074 487.045L787.877 490.315C787.419 491.51 786.293 492.319 785.026 492.319H705.695C704.428 492.319 703.337 491.51 702.985 490.28L702.07 487.08C701.718 485.885 700.627 485.041 699.36 485.041H637.627C635.304 485.041 633.404 483.002 633.122 480.716L628.582 445.311C628.159 442.463 630.482 440.037 633.368 440.037Z" fill="#474747"/>
<path d="M283.102 523.435C283.982 523.435 284.686 524.35 284.65 525.44C284.615 526.565 283.876 527.444 282.996 527.444C282.116 527.444 281.412 526.529 281.448 525.44C281.483 524.314 282.222 523.435 283.102 523.435Z" fill="#414141"/>
<path d="M282.785 532.999C283.665 532.999 284.369 533.913 284.334 535.003C284.299 536.128 283.559 537.007 282.68 537.007C281.8 537.007 281.096 536.093 281.131 535.003C281.166 533.913 281.905 532.999 282.785 532.999Z" fill="#414141"/>
<path d="M286.164 540.066C287.044 540.066 287.748 540.98 287.712 542.07C287.677 543.195 286.938 544.074 286.058 544.074C285.178 544.074 284.474 543.16 284.51 542.07C284.545 540.98 285.284 540.066 286.164 540.066Z" fill="#414141"/>
<path d="M292.077 543.09C292.957 543.09 293.661 544.004 293.625 545.094C293.59 546.219 292.851 547.098 291.971 547.098C291.091 547.098 290.387 546.184 290.423 545.094C290.423 544.004 291.197 543.09 292.077 543.09Z" fill="#414141"/>
<path d="M489.841 516.474H466.858C464.43 516.474 462.177 515.524 460.523 513.802C458.869 512.079 457.989 509.793 458.059 507.367L465.908 273.837C466.084 268.914 470.202 264.906 475.129 264.906H521.13C524.649 264.906 527.852 266.981 529.225 270.215L564.244 354.142C564.737 355.302 564.983 356.603 564.948 357.939L562.133 441.408C561.992 445.943 558.402 449.776 553.791 450.268C518.349 454.206 502.652 496.925 498.675 509.899C497.478 513.802 493.853 516.474 489.841 516.474ZM475.129 270.286C473.052 270.286 471.328 271.973 471.258 274.048L463.409 507.578C463.374 508.528 463.726 509.442 464.359 510.11C464.993 510.778 465.908 511.165 466.858 511.165H489.841C491.53 511.165 493.044 510.04 493.536 508.387C497.76 494.604 514.478 449.319 553.193 444.994C555.164 444.783 556.712 443.166 556.748 441.267L559.563 357.798C559.598 357.271 559.493 356.743 559.282 356.286L524.262 272.36C523.734 271.13 522.502 270.321 521.094 270.321H475.129V270.286Z" fill="#89C147"/>
<path d="M297.778 540.066C298.658 540.066 299.292 540.945 299.292 542C299.045 542.597 298.799 543.16 298.518 543.723C298.271 543.933 297.954 544.074 297.638 544.074C296.758 544.074 296.054 543.16 296.089 542.07C296.124 540.98 296.899 540.066 297.778 540.066Z" fill="#414141"/>
<path opacity="0.25" d="M284.932 504.027C294.752 504.027 302.354 515.56 301.861 529.764C301.65 536.128 299.855 541.965 297.039 546.465C289.683 537.886 277.787 529.377 266.278 531.417C266.278 530.889 266.243 530.327 266.278 529.764C266.736 515.524 275.112 504.027 284.932 504.027Z" fill="black"/>
<path d="M290.458 467.18C301.368 466.828 314.074 470.239 325.02 479.204C334.875 487.256 343.286 500.019 347.791 519.533L339.591 521.08C335.121 521.923 330.757 519.673 328.927 515.595C323.577 503.43 310.026 479.556 286.164 479.556C254.101 479.556 247.343 519.497 247.343 519.497C247.343 519.497 253.115 468.34 290.458 467.18Z" fill="#89C147"/>
<path d="M645.229 447.315H693.518C695.84 447.315 697.635 449.178 697.565 451.499L696.861 472.7C696.791 475.021 694.855 476.884 692.532 476.884H647.587C645.511 476.884 643.821 475.372 643.575 473.368L640.9 452.167C640.583 449.6 642.625 447.315 645.229 447.315Z" fill="#F2F2F2"/>
<path d="M645.229 447.315H660.399L659.413 476.884H647.623C645.546 476.884 643.857 475.372 643.61 473.368L640.935 452.167C640.583 449.6 642.625 447.315 645.229 447.315Z" fill="#EA5615"/>
<path d="M802.554 447.315H819.166C821.911 447.315 824.058 449.53 823.953 452.272L823.284 471.997C823.178 474.704 820.926 476.884 818.251 476.884H799.421C797.098 476.884 795.303 475.021 795.374 472.7L797.239 450.76C797.345 448.44 800.266 447.315 802.554 447.315Z" fill="#F2F2F2"/>
<path d="M818.286 478.466H799.456C797.908 478.466 796.465 477.868 795.374 476.743C794.318 475.653 793.755 474.177 793.79 472.63L795.585 451.358C795.69 448.264 798.365 445.697 801.533 445.697H819.236C820.996 445.697 822.65 446.401 823.847 447.631C825.044 448.897 825.677 450.549 825.642 452.307L824.973 472.032C824.832 475.583 821.841 478.466 818.286 478.466ZM801.498 448.932C800.055 448.932 798.823 450.127 798.788 451.569L796.993 472.841C796.958 473.438 797.204 474.071 797.661 474.563C798.119 475.056 798.752 475.302 799.421 475.302H818.251C820.081 475.302 821.63 473.825 821.7 471.962L822.369 452.237C822.404 451.358 822.087 450.514 821.489 449.916C820.89 449.284 820.081 448.967 819.201 448.967H801.498V448.932Z" fill="#353535"/>
<path d="M709.461 445.838L784.674 445.803C787.419 445.803 789.461 448.158 789.109 450.901L784.674 483.775C784.357 486.131 782.316 487.924 779.923 487.924H712.171C709.848 487.924 707.913 486.201 707.701 483.881L704.675 451.006C704.428 448.264 706.681 445.838 709.461 445.838Z" fill="#353535"/>
<path d="M790.341 456.737H703.126L703.267 452.026H790.481L790.341 456.737Z" fill="#474747"/>
<path d="M789.883 469.782H702.669L702.845 465.07H790.059L789.883 469.782Z" fill="#474747"/>
<path d="M789.461 482.861H702.246L702.387 478.15H789.602L789.461 482.861Z" fill="#474747"/>
<path d="M700.064 506.875H796.465C797.873 506.875 798.999 508.035 798.928 509.442L798.823 513.098C798.788 514.505 797.591 515.665 796.183 515.665H699.782C698.375 515.665 697.248 514.505 697.319 513.098L697.424 509.442C697.46 508.035 698.621 506.875 700.064 506.875Z" fill="#353535"/>
<path d="M582.968 459.972C598.912 466.582 611.195 487.397 612.216 502.093L589.163 504.133C589.163 504.133 580.892 475.407 549.11 475.618C513.422 475.899 503.919 519.462 503.919 519.462C503.919 519.462 505.749 492.46 521.094 474.036C532.779 459.972 557.663 449.495 582.968 459.972Z" fill="#89C147"/>
<path d="M585.714 499.386L662.018 495.8C665.96 495.8 669.057 499.703 668.916 503.605L668.388 518.302C668.212 523.154 663.813 530.221 658.956 530.221H657.548L590.535 528.006C587.016 528.006 583.989 528.569 583.531 525.088C582.968 520.939 582.792 505.891 582.37 503.429C581.983 501.355 583.602 499.492 585.714 499.386Z" fill="#3D3D3D"/>
<path d="M478.05 394.962H479.88C481.781 394.962 483.33 396.474 483.259 398.302L482.45 422.316C482.379 424.144 480.76 425.656 478.86 425.656H477.03C475.129 425.656 473.58 424.144 473.651 422.316L474.46 398.302C474.495 396.474 476.114 394.962 478.05 394.962Z" fill="#3D3D3D"/>
<path d="M548.195 372.46H482.485C480.268 372.46 478.226 371.581 476.713 370.034C475.199 368.452 474.39 366.377 474.46 364.197L477.17 282.943C477.311 278.478 481.077 274.856 485.547 274.856C485.582 274.856 485.617 274.856 485.617 274.856L515.956 275.173C519.194 275.208 522.08 277.177 523.312 280.166L555.973 361.103C556.994 363.635 556.677 366.483 555.129 368.768C553.545 371.088 550.975 372.46 548.195 372.46ZM485.582 280.201C483.998 280.201 482.626 281.537 482.555 283.119L479.845 364.373C479.81 365.111 480.092 365.815 480.584 366.307C481.077 366.834 481.746 367.115 482.52 367.115H548.23C549.251 367.115 550.166 366.623 550.729 365.744C551.292 364.9 551.398 363.951 551.046 363.072L518.384 282.134C517.997 281.15 517.047 280.517 515.956 280.517L485.582 280.201Z" fill="#3A3A3A"/>
<path d="M551.82 359.064H569.136C572.515 359.064 575.155 362.088 575.049 365.779V366.131C574.909 369.823 572.058 372.846 568.714 372.846H551.398C548.019 372.846 545.379 369.823 545.485 366.131V365.779C545.591 362.088 548.441 359.064 551.82 359.064Z" fill="#303030"/>
<path d="M524.614 343.98H552.419C555.164 343.98 557.311 346.793 557.205 350.204L556.642 366.588C556.536 369.999 554.178 372.811 551.433 372.811H523.629C520.883 372.811 518.736 369.999 518.842 366.588L519.405 350.204C519.511 346.793 521.869 343.98 524.614 343.98Z" fill="#303030"/>
<path d="M532.287 343.98H560.091C562.836 343.98 564.983 346.793 564.878 350.204L564.315 366.588C564.209 369.999 561.851 372.811 559.106 372.811H531.301C528.556 372.811 526.409 369.999 526.515 366.588L527.078 350.204C527.183 346.793 529.541 343.98 532.287 343.98Z" fill="#3D3D3D"/>
<path d="M692.497 478.466H647.587C644.737 478.466 642.343 476.357 641.956 473.544L639.281 452.343C639.07 450.69 639.598 449.002 640.724 447.701C641.851 446.401 643.47 445.697 645.159 445.697H693.447C694.996 445.697 696.439 446.295 697.53 447.42C698.586 448.51 699.149 449.987 699.114 451.534L698.41 472.735C698.339 475.899 695.665 478.466 692.497 478.466ZM645.229 448.932C644.455 448.932 643.716 449.284 643.188 449.881C642.66 450.479 642.414 451.253 642.519 451.991L645.194 473.192C645.335 474.423 646.356 475.302 647.623 475.302H692.532C693.975 475.302 695.207 474.106 695.242 472.665L695.946 451.464C695.981 450.795 695.735 450.163 695.277 449.67C694.82 449.178 694.186 448.932 693.518 448.932H645.229Z" fill="#353535"/>
<g opacity="0.29">
<path d="M697.495 411.065C698.234 409.764 697.812 408.147 696.544 407.444L656.562 385.258C655.295 384.555 653.641 385.012 652.902 386.313C652.163 387.614 652.585 389.231 653.852 389.934L693.834 412.12C695.101 412.823 696.756 412.331 697.495 411.065Z" fill="#ABD661"/>
</g>
<path d="M185.505 498.12H171.708C167.907 498.12 164.704 501.214 164.563 505.012L163.965 522.592C163.824 526.389 166.851 529.483 170.617 529.483H184.801C186.948 529.483 188.742 527.725 188.813 525.58L189.587 502.41C189.728 500.054 187.863 498.12 185.505 498.12Z" fill="#3D3D3D"/>
<path opacity="0.7" d="M224.536 446.119H401.148C402.732 446.119 404.069 444.818 404.104 443.271C404.14 441.689 402.908 440.423 401.324 440.423H224.748C223.164 440.423 221.826 441.724 221.791 443.271C221.721 444.818 222.988 446.119 224.536 446.119Z" fill="#89C147"/>
<path opacity="0.7" d="M230.027 282.802H406.638C408.222 282.802 409.56 281.502 409.595 279.955C409.63 278.372 408.398 277.107 406.814 277.107H230.203C228.619 277.107 227.282 278.408 227.246 279.955C227.211 281.537 228.443 282.802 230.027 282.802Z" fill="#89C147"/>
<path d="M588.072 453.608H580.188C577.337 453.608 575.014 451.288 575.014 448.44V445.17C575.014 442.322 577.337 440.001 580.188 440.001H588.072C590.922 440.001 593.245 442.322 593.245 445.17V448.44C593.245 451.288 590.922 453.608 588.072 453.608Z" fill="#3D3D3D"/>
<path d="M586.136 453.608H577.865C575.12 453.608 572.902 451.358 572.902 448.651V445.029C572.902 442.287 575.155 440.072 577.865 440.072H586.136C588.881 440.072 591.098 442.322 591.098 445.029V448.651C591.098 451.358 588.881 453.608 586.136 453.608Z" fill="#474747"/>
<path d="M584.271 450.831H579.73C578.006 450.831 576.598 449.424 576.598 447.701V445.908C576.598 444.185 578.006 442.779 579.73 442.779H584.271C585.995 442.779 587.403 444.185 587.403 445.908V447.701C587.403 449.424 585.995 450.831 584.271 450.831Z" fill="#EA5615"/>
<path d="M503.356 523.541H338.007C335.754 523.541 333.924 521.713 333.924 519.462C333.924 517.212 335.754 515.384 338.007 515.384H503.391C505.644 515.384 507.474 517.212 507.474 519.462C507.474 521.677 505.608 523.541 503.356 523.541Z" fill="#2B2B2B"/>
<path d="M483.998 523.541H336.916C334.663 523.541 332.833 521.713 332.833 519.462C332.833 517.212 334.663 515.384 336.916 515.384H483.998C486.251 515.384 488.081 517.212 488.081 519.462C488.116 521.677 486.251 523.541 483.998 523.541Z" fill="#3F3F3F"/>
<path d="M240.015 374.451C244.821 380.617 251.415 386.111 256.313 391.154C264.407 382.26 277.75 371.467 277.75 358.979C277.75 346.729 267.888 336.795 255.72 336.795C250.206 336.795 245.16 338.84 241.294 342.213H235.456C233.816 342.213 232.476 343.564 232.476 345.21C232.476 346.862 233.817 348.208 235.456 348.208H244.75C247.534 345.334 251.42 343.551 255.72 343.551C256.357 343.551 256.982 343.59 257.597 343.666C265.172 344.595 271.042 351.098 271.042 358.979C271.042 367.049 264.886 373.672 257.043 374.349C256.607 374.385 256.168 374.407 255.72 374.407C250.809 374.407 246.434 372.078 243.634 368.457H226.747C225.107 368.457 223.766 369.808 223.766 371.454C223.766 373.106 225.108 374.452 226.747 374.452H240.015V374.451ZM224.698 350.722C223.058 350.722 221.717 352.073 221.717 353.724C221.717 355.371 223.059 356.722 224.698 356.722H240.565C240.882 354.544 241.65 352.507 242.776 350.723H224.698V350.722ZM241.919 365.685L240.415 359.687H219.317C217.681 359.687 216.34 361.037 216.34 362.684C216.34 364.335 217.681 365.686 219.317 365.686H241.919V365.685Z" fill="white"/>
<path d="M256.687 356.592L261.369 353.869L265.704 351.35L261.369 348.827L255.878 345.635L250.386 348.827L246.052 351.35L250.386 353.869L255.074 356.592L255.878 357.061L256.687 356.592ZM261.369 355.782L256.687 358.504V370.696L261.369 367.973L266.856 364.786V358.402V352.594L261.369 355.782ZM255.074 358.504L250.386 355.782L244.9 352.594V358.402V364.786L250.386 367.973L255.074 370.696V358.504Z" fill="white"/>
<path d="M303.041 357.309H291.258V371.667H294.762V366.375H302.229V363.461H294.762V360.381H303.041V357.309ZM322.305 371.667L316.007 357.309H312.073L305.746 371.667H309.463L310.502 369.02H317.367L318.412 371.667H322.305ZM313.924 360.36L316.328 366.395H311.54L313.924 360.36ZM326.521 368.587C326.521 370.718 327.477 371.667 329.581 371.667H337.526C339.63 371.667 340.587 370.718 340.587 368.587V366.25C340.587 364.175 339.672 363.357 337.526 363.171L331.371 362.594C330.496 362.518 330.23 362.291 330.23 361.446V361.185C330.23 360.339 330.538 360.031 331.371 360.031H335.777C336.611 360.031 336.918 360.341 336.918 361.185V361.488H340.299V360.381C340.299 358.25 339.342 357.309 337.245 357.309H329.778C327.681 357.309 326.724 358.25 326.724 360.381V362.354C326.724 364.423 327.639 365.24 329.778 365.426L335.94 366.004C336.815 366.086 337.081 366.313 337.081 367.151V367.783C337.081 368.628 336.773 368.938 335.94 368.938H331.042C330.21 368.938 329.902 368.628 329.902 367.783V367.234H326.521V368.587ZM345.436 357.309V360.422H350.368V371.665H353.873V360.422H358.806V357.309H345.436ZM382.127 364.195C383.042 363.831 383.493 362.965 383.493 361.61V360.38C383.493 358.249 382.537 357.308 380.432 357.308H370.24V371.667H380.843C382.94 371.667 383.897 370.718 383.897 368.587V366.924C383.896 365.384 383.308 364.484 382.127 364.195ZM378.841 360.01C379.68 360.01 379.981 360.32 379.981 361.165V361.941C379.981 362.821 379.722 363.088 378.841 363.088H373.744V360.009H378.841V360.01ZM380.392 367.804C380.392 368.649 380.084 368.958 379.251 368.958H373.745V365.446H379.251C380.126 365.446 380.392 365.756 380.392 366.594V367.804ZM400.12 371.667C402.812 371.667 404.075 370.409 404.075 367.688V361.282C404.075 358.56 402.812 357.31 400.12 357.31H393.556C390.871 357.31 389.608 358.561 389.608 361.282V367.686C389.608 370.407 390.872 371.665 393.556 371.665H400.12V371.667ZM394.785 368.67C393.556 368.67 393.112 368.216 393.112 366.986V361.983C393.112 360.753 393.556 360.299 394.785 360.299H398.898C400.141 360.299 400.571 360.753 400.571 361.983V366.986C400.571 368.216 400.141 368.67 398.898 368.67H394.785ZM412.068 371.667L415.799 366.491L419.467 371.667H423.648L418.182 364.36L423.442 357.309H419.466L416.003 362.21L412.532 357.309H408.352L413.612 364.36L408.154 371.667H412.068Z" fill="white"/>
</g>
<defs>
<clipPath id="clip0_158_65">
<rect width="664" height="360" fill="white" transform="translate(164 225)"/>
</clipPath>
</defs>
</svg>
